<?xml version="1.0" standalone="no"?>
<!DOCTYPE svg PUBLIC "-//W3C//DTD SVG 1.1//EN" "http://www.w3.org/Graphics/SVG/1.1/DTD/svg11.dtd" >
<svg xmlns="http://www.w3.org/2000/svg">
<metadata>Generated by IcoMoon</metadata>
<defs>
<font id="smwicons" horiz-adv-x="1024">
<font-face units-per-em="1024" ascent="960" descent="-64" />
<missing-glyph horiz-adv-x="1024" />
<glyph unicode="&#x20;" horiz-adv-x="512" d="" />
<glyph unicode="&#xe900;" glyph-name="arrow-right-circle" horiz-adv-x="819" d="M742.4 448c0 118.4-64 227.2-166.4 288-104 59.2-230.4 59.2-332.8 0-104-60.8-166.4-169.6-166.4-288 0-120.003 62.4-228.803 166.4-289.597 102.4-59.203 228.8-59.203 332.8 0 102.4 60.795 166.4 169.595 166.4 289.597zM0 448c0 145.6 76.8 280 204.8 353.6 126.4 73.6 281.6 73.6 409.6 0 126.403-73.6 204.8-208 204.8-353.6 0-147.2-78.397-281.6-204.8-355.2-128-73.6-283.2-73.6-409.6 0-128 73.6-204.8 208-204.8 355.2zM462.4 280.003c-16-16.005-40-16.005-54.4 0-16 14.397-16 38.4 0 54.395l75.2 75.203h-240c-22.4 0-38.4 16-38.4 38.4 0 20.8 16 38.4 38.4 38.4h240l-75.2 75.2c-16 14.4-16 38.4 0 52.8 14.4 16 38.4 16 54.4 0l140.797-140.8c14.403-14.4 14.403-38.4 0-52.797l-140.797-140.8z" />
<glyph unicode="&#xe901;" glyph-name="arrow-up" horiz-adv-x="768" d="M385.6 793.6l268.797-281.6c14.403-16 14.403-40-1.597-54.4-16-14.403-39.997-14.403-54.4 1.6l-201.6 212.8v-544c0-22.4-17.6-38.4-38.4-38.4-22.4 0-38.4 16-38.4 38.4v544l-203.2-212.8c-14.4-16.003-38.4-16.003-54.4-1.6-16 14.4-16 40-1.6 54.4l268.8 281.6c8 8 17.6 12.8 28.8 12.8 9.6 0 19.2-4.8 27.2-12.8z" />
<glyph unicode="&#xe902;" glyph-name="burger" d="M0 806.444c0 17.778 15.556 35.556 35.556 35.556h924.444c17.776 0 35.556-17.778 35.556-35.556 0-20-17.78-35.556-35.556-35.556h-924.444c-20 0-35.556 15.556-35.556 35.556zM0 450.89c0 17.776 15.556 35.554 35.556 35.554h924.444c17.776 0 35.556-17.779 35.556-35.554 0-20.002-17.78-35.556-35.556-35.556h-924.444c-20 0-35.556 15.553-35.556 35.556zM995.556 95.334c0-20.002-17.78-35.556-35.556-35.556h-924.444c-20 0-35.556 15.553-35.556 35.556 0 17.776 15.556 35.556 35.556 35.556h924.444c17.776 0 35.556-17.78 35.556-35.556z" />
<glyph unicode="&#xe903;" glyph-name="button-left" d="M399.793 527.222c-44.82-42.791-82.57-79.301-83.87-81.113-1.575-2.225-1.871-4.352-0.866-6.42 0.847-1.713 38.636-38.558 84.007-81.881 59.195-56.537 83.574-78.769 86.351-78.769 4.332 0 9.511 4.844 9.511 8.901 0 1.477-33.221 34.422-73.826 73.255l-73.826 70.597 188.318 0.847c183.926 0.827 188.377 0.926 190.74 4.175 2.954 4.037 3.092 8.113 0.374 10.85-1.575 1.556-46.375 2.048-191.291 2.048-104.094 0-188.987 0.63-188.672 1.418s28.987 28.514 63.705 61.598c91.451 87.138 88.025 83.377 81.802 89.6-6.617 6.636-8.054 5.455-92.455-75.106z" />
<glyph unicode="&#xe904;" glyph-name="button-right" d="M531.889 613.849c-1.556-1.733-2.816-4.332-2.816-5.79s33.339-34.422 74.082-73.255c40.763-38.814 74.161-71.168 74.24-71.857 0.079-0.709-85.268-1.477-189.676-1.713l-189.814-0.433-1.674-4.726c-1.319-3.742-1.044-5.337 1.3-7.68 2.757-2.757 15.518-3.013 191.232-3.801l188.258-0.866-70.695-67.407c-38.892-37.081-72.172-69.238-73.984-71.483-3.978-4.943-4.116-7.641-0.591-11.166 6.617-6.636 8.054-5.455 92.455 75.106 44.82 42.791 82.57 79.301 83.87 81.113 1.575 2.225 1.871 4.352 0.866 6.42-0.847 1.694-38.656 38.538-84.027 81.861-58.978 56.34-83.594 78.789-86.351 78.789-2.107 0-5.12-1.398-6.676-3.111z" />
<glyph unicode="&#xe905;" glyph-name="calendar" horiz-adv-x="717" d="M243.2 819.2v-64h230.4v64c0 20.8 16 38.4 38.4 38.4 20.797 0 38.4-17.6 38.4-38.4v-64h64c56.003 0 102.4-46.4 102.4-102.4v-512c0-57.6-46.397-102.4-102.4-102.4h-512c-57.6 0-102.4 44.8-102.4 102.4v512c0 56 44.8 102.4 102.4 102.4h64v64c0 20.8 16 38.4 38.4 38.4 20.8 0 38.4-17.6 38.4-38.4zM76.8 550.4v-409.6c0-14.397 11.2-25.6 25.6-25.6h512c12.8 0 25.6 11.203 25.6 25.6v409.6h-563.2z" />
<glyph unicode="&#xe906;" glyph-name="close" horiz-adv-x="717" d="M551.997 638.4l-191.997-191.997 190.4-190.403c16-14.397 16-38.4 0-52.797-14.397-16.005-38.4-16.005-52.8 0l-192 190.397-190.4-190.397c-14.4-16.005-38.4-16.005-52.8 0-16 14.397-16 38.4 0 54.395l190.4 190.403-190.4 190.4c-16 14.4-16 38.4 0 54.4 14.4 14.4 38.4 14.4 54.4 0l190.4-192 190.4 190.4c14.4 16 38.403 16 54.397 0 14.403-14.4 14.403-38.4 0-52.8z" />
<glyph unicode="&#xe907;" glyph-name="close-blue" d="M146.286 960h731.429c80.004 0 146.286-66.286 146.286-146.286v-731.429c0-82.286-66.282-146.286-146.286-146.286h-731.429c-82.286 0-146.286 64-146.286 146.286v731.429c0 80 64 146.286 146.286 146.286zM825.139 768h-109.711l-178.286-205.714-155.429 205.714h-224l267.429-352-253.714-288h109.714l196.571 221.714 169.143-221.714h219.432l-278.861 368 237.711 272zM738.289 192h-61.718l-390.857 514.286h64l388.575-514.286z" />
<glyph unicode="&#xe908;" glyph-name="close-blue-hover" d="M146.286 960h731.429c80.004 0 146.286-66.286 146.286-146.286v-731.429c0-82.286-66.282-146.286-146.286-146.286h-731.429c-82.286 0-146.286 64-146.286 146.286v731.429c0 80 64 146.286 146.286 146.286zM825.139 768h-109.711l-178.286-205.714-155.429 205.714h-224l267.429-352-253.714-288h109.714l196.571 221.714 169.143-221.714h219.432l-278.861 368 237.711 272zM738.289 192h-61.718l-390.857 514.286h64l388.575-514.286z" />
<glyph unicode="&#xe909;" glyph-name="default" d="M512.748 583.818c-3.23-2.363-3.328-6.814-4.155-191.074l-0.866-188.652-69.868 73.255c-38.42 40.29-70.971 73.689-72.35 74.201-1.359 0.532-4.332-0.256-6.597-1.753-8.881-5.829-7.641-7.385 73.334-92.239 42.023-44.032 78.277-81.526 80.581-83.338 3.052-2.402 5.061-2.855 7.483-1.713 1.812 0.866 38.715 38.617 81.979 83.909 60.593 63.409 78.671 83.298 78.671 86.567 0 5.514-6.971 10.417-11.402 8.015-1.713-0.926-34.206-34.284-72.231-74.142l-69.12-72.468-0.847 188.514c-0.827 184.103-0.926 188.554-4.175 190.917-4.155 3.052-6.262 3.052-10.437 0z" />
<glyph unicode="&#xe90a;" glyph-name="default-variant-2" d="M512.748 662.331c-3.23-2.363-3.328-6.814-4.155-190.897l-0.866-188.455-67.407 70.695c-37.081 38.892-69.238 72.172-71.483 73.984-4.943 3.978-7.641 4.116-11.166 0.591-6.656-6.656-5.534-8.034 75.106-92.495 42.791-44.8 79.301-82.53 81.132-83.83 2.206-1.575 4.332-1.871 6.4-0.866 1.694 0.847 38.538 38.636 81.861 84.007 56.615 59.234 78.789 83.554 78.789 86.351 0 4.332-4.844 9.511-8.901 9.511-1.457 0-34.599-33.378-73.649-74.201l-71.010-74.201-0.453 188.692c-0.433 184.537-0.512 188.731-3.761 191.114-4.155 3.033-6.262 3.033-10.437 0z" />
<glyph unicode="&#xe90b;" glyph-name="default-variant-3" d="M511.783 641.438c-1.95-2.324-2.481-34.855-3.19-190.464l-0.866-187.628-69.12 72.606c-38.321 40.251-70.951 73.137-73.216 73.807-5.79 1.694-9.551-1.28-9.551-7.582 0-4.726 9.196-14.986 79.084-88.143 58.9-61.657 80.069-82.786 82.964-82.786 2.875 0 24.064 21.15 83.042 82.924 69.12 72.389 79.183 83.574 79.183 88.123 0 6.538-4.135 9.531-9.984 7.247-2.284-0.906-35.151-34.127-73.039-73.846l-68.884-72.192-0.847 187.569c-0.926 201.433-0.512 193.201-9.393 193.201-2.107 0-4.903-1.28-6.183-2.836z" />
<glyph unicode="&#xe90c;" glyph-name="dot" d="M1024 448c0-282.77-229.23-512-512-512s-512 229.23-512 512c0 282.77 229.23 512 512 512s512-229.23 512-512z" />
<glyph unicode="&#xe90d;" glyph-name="down-angle" horiz-adv-x="717" d="M385.6 318.403c-16-16.005-40-16.005-54.4 0l-256 255.997c-16 14.4-16 38.4 0 52.8 14.4 16 38.4 16 52.8 0l228.8-228.803 230.403 230.403c14.397 14.4 38.4 14.4 52.797 0 16-16 16-40 0-54.4l-254.4-255.997z" />
<glyph unicode="&#xe90e;" glyph-name="down-arrow" horiz-adv-x="922" d="M460.8 780.8c-120 0-228.8-64-289.6-166.4-59.2-104-59.2-230.4 0-332.8 60.8-103.997 169.6-166.4 289.6-166.4 118.4 0 227.2 62.403 288 166.4 59.197 102.4 59.197 228.8 0 332.8-60.8 102.4-169.6 166.4-288 166.4zM460.8 38.4c-147.2 0-281.6 76.8-355.2 204.8-73.6 126.403-73.6 281.6 0 409.6 73.6 126.4 208 204.8 355.2 204.8 145.603 0 280.003-78.4 353.597-204.8 73.605-128 73.605-283.197 0-409.6-73.595-128-207.995-204.8-353.597-204.8zM628.797 395.203l-140.797-140.8c-16-16.005-40-16.005-54.4 0l-140.8 140.8c-16 14.397-16 38.4 0 52.797 14.4 16 38.4 16 54.4 0l75.2-75.203v241.603c0 20.8 16 38.4 38.4 38.4 20.8 0 38.4-17.6 38.4-38.4v-241.603l75.203 75.203c14.397 16 38.4 16 52.797 0 16-14.397 16-38.4 0-52.797h1.597z" />
<glyph unicode="&#xe90f;" glyph-name="email" horiz-adv-x="819" d="M102.4 678.4c-14.4 0-25.6-12.8-25.6-25.6v-36.8l275.2-225.6c33.6-27.197 80-27.197 113.6 0l276.8 225.6v36.8c0 12.8-12.8 25.6-25.6 25.6h-614.4zM76.8 516.8v-273.6c0-14.397 11.2-25.6 25.6-25.6h614.4c12.8 0 25.6 11.203 25.6 25.6v273.6l-227.2-185.597c-62.4-51.2-150.4-51.2-211.2 0l-227.2 185.597zM0 652.8c0 56 44.8 102.4 102.4 102.4h614.4c56.003 0 102.4-46.4 102.4-102.4v-409.6c0-57.6-46.397-102.4-102.4-102.4h-614.4c-57.6 0-102.4 44.8-102.4 102.4v409.6z" />
<glyph unicode="&#xe910;" glyph-name="home" d="M1009.869 481.333c3.734-3.734 5.598-7.466 5.598-11.2s-1.242-6.844-3.734-9.333l-18.664-24.267c-2.492-3.734-6.226-5.6-11.203-5.6-3.734 0-6.84 1.245-9.332 3.734l-76.534 61.6v-453.6c0-7.468-3.113-14.309-9.332-20.535-4.977-6.219-11.824-9.332-20.535-9.332h-238.933c-8.711 0-16.178 3.113-22.4 9.332-4.978 4.977-7.467 11.824-7.467 20.535v238.933h-119.467v-238.933c0-7.468-3.111-14.309-9.333-20.535-4.978-6.219-11.822-9.332-20.533-9.332h-238.933c-8.711 0-16.178 3.113-22.4 9.332-4.978 6.226-7.467 13.066-7.467 20.535v453.6l-76.533-61.6c-2.489-2.489-5.6-3.734-9.333-3.734-4.978 0-8.712 1.866-11.201 5.6l-18.666 24.267c-2.489 2.489-3.733 5.6-3.733 9.333s1.867 7.466 5.6 11.2l434.933 354.667c11.201 8.711 23.645 13.067 37.334 13.067s26.133-4.356 37.334-13.067l261.333-212.8v95.2c0 7.466 3.734 11.2 11.203 11.2h37.328c7.468 0 11.203-3.734 11.203-11.2v-143.733l113.869-93.334zM836.267 72.533v472.267l-298.667 244.533-298.667-244.533v-472.267h179.2v238.933c0 8.711 2.489 15.555 7.467 20.533 6.222 6.223 13.689 9.333 22.4 9.333h179.2c8.711 0 15.555-3.111 20.533-9.333 6.223-4.978 9.333-11.822 9.333-20.533v-238.933h179.2z" />
<glyph unicode="&#xe911;" glyph-name="info-circle" horiz-adv-x="922" d="M460.8 780.8c-120 0-228.8-64-289.6-166.4-59.2-104-59.2-230.4 0-332.8 60.8-103.997 169.6-166.4 289.6-166.4 118.4 0 227.2 62.403 288 166.4 59.197 102.4 59.197 228.8 0 332.8-60.8 102.4-169.6 166.4-288 166.4zM460.8 38.4c-147.2 0-281.6 76.8-355.2 204.8-73.6 126.403-73.6 281.6 0 409.6 73.6 126.4 208 204.8 355.2 204.8 145.603 0 280.003-78.4 353.597-204.8 73.605-128 73.605-283.197 0-409.6-73.595-128-207.995-204.8-353.597-204.8zM396.8 320h38.4v102.4h-38.4c-22.4 0-38.4 16-38.4 38.4 0 20.8 16 38.4 38.4 38.4h76.8c20.8 0 38.4-17.6 38.4-38.4v-140.8h12.8c20.797 0 38.4-17.603 38.4-38.4 0-22.4-17.603-38.4-38.4-38.4h-128c-22.4 0-38.4 16-38.4 38.4 0 20.797 16 38.4 38.4 38.4zM460.8 550.4c-28.8 0-51.2 22.4-51.2 51.2 0 27.2 22.4 51.2 51.2 51.2 27.2 0 51.2-24 51.2-51.2 0-28.8-24-51.2-51.2-51.2z" />
<glyph unicode="&#xe912;" glyph-name="linkedln" horiz-adv-x="717" d="M665.6 806.4c27.197 0 51.2-24 51.2-52.8v-612.8c0-28.8-24.003-51.2-51.2-51.2h-616c-27.2 0-49.6 22.4-49.6 51.2v612.8c0 28.8 22.4 52.8 49.6 52.8h616zM216 192v340.8h-105.6v-340.8h105.6zM163.2 580.8c33.6 0 60.8 27.2 60.8 60.8s-27.2 62.4-60.8 62.4c-35.2 0-62.4-28.8-62.4-62.4s27.2-60.8 62.4-60.8zM614.4 192v187.197c0 91.203-20.797 163.203-128 163.203-51.2 0-86.4-28.8-100.8-56h-1.6v46.4h-100.8v-340.8h105.6v167.997c0 44.8 8 88.003 64 88.003 54.4 0 54.4-51.2 54.4-89.6v-166.4h107.2z" />
<glyph unicode="&#xe913;" glyph-name="linkedln-blue" horiz-adv-x="717" d="M665.6 806.4c27.197 0 51.2-24 51.2-52.8v-612.8c0-28.8-24.003-51.2-51.2-51.2h-616c-27.2 0-49.6 22.4-49.6 51.2v612.8c0 28.8 22.4 52.8 49.6 52.8h616zM216 192v340.8h-105.6v-340.8h105.6zM163.2 580.8c33.6 0 60.8 27.2 60.8 60.8s-27.2 62.4-60.8 62.4c-35.2 0-62.4-28.8-62.4-62.4s27.2-60.8 62.4-60.8zM614.4 192v187.197c0 91.203-20.797 163.203-128 163.203-51.2 0-86.4-28.8-100.8-56h-1.6v46.4h-100.8v-340.8h105.6v167.997c0 44.8 8 88.003 64 88.003 54.4 0 54.4-51.2 54.4-89.6v-166.4h107.2z" />
<glyph unicode="&#xe914;" glyph-name="linkedln-blue-hover" horiz-adv-x="717" d="M665.6 806.4c27.197 0 51.2-24 51.2-52.8v-612.8c0-28.8-24.003-51.2-51.2-51.2h-616c-27.2 0-49.6 22.4-49.6 51.2v612.8c0 28.8 22.4 52.8 49.6 52.8h616zM216 192v340.8h-105.6v-340.8h105.6zM163.2 580.8c33.6 0 60.8 27.2 60.8 60.8s-27.2 62.4-60.8 62.4c-35.2 0-62.4-28.8-62.4-62.4s27.2-60.8 62.4-60.8zM614.4 192v187.197c0 91.203-20.797 163.203-128 163.203-51.2 0-86.4-28.8-100.8-56h-1.6v46.4h-100.8v-340.8h105.6v167.997c0 44.8 8 88.003 64 88.003 54.4 0 54.4-51.2 54.4-89.6v-166.4h107.2z" />
<glyph unicode="&#xe915;" glyph-name="linkedln-hover" horiz-adv-x="717" d="M665.6 806.4c27.197 0 51.2-24 51.2-52.8v-612.8c0-28.8-24.003-51.2-51.2-51.2h-616c-27.2 0-49.6 22.4-49.6 51.2v612.8c0 28.8 22.4 52.8 49.6 52.8h616zM216 192v340.8h-105.6v-340.8h105.6zM163.2 580.8c33.6 0 60.8 27.2 60.8 60.8s-27.2 62.4-60.8 62.4c-35.2 0-62.4-28.8-62.4-62.4s27.2-60.8 62.4-60.8zM614.4 192v187.197c0 91.203-20.797 163.203-128 163.203-51.2 0-86.4-28.8-100.8-56h-1.6v46.4h-100.8v-340.8h105.6v167.997c0 44.8 8 88.003 64 88.003 54.4 0 54.4-51.2 54.4-89.6v-166.4h107.2z" />
<glyph unicode="&#xe916;" glyph-name="phone" horiz-adv-x="870" d="M600.003 416l179.2-76.8c28.795-11.203 44.8-41.6 38.4-71.997l-38.4-179.2c-6.4-28.805-33.603-51.2-62.403-51.2-11.203 0-20.797 1.597-30.403 1.597-15.995 0-32 1.597-46.397 3.2-360 38.4-640 342.4-640 713.6 0 28.8 20.8 56 49.6 62.4l179.2 38.4c30.4 6.4 60.8-9.6 72-38.4l76.8-179.2c11.2-25.6 4.8-56-17.6-73.6l-65.6-54.4c43.2-73.603 104-134.397 177.6-177.6l54.397 65.597c17.603 22.405 48.005 28.805 73.605 17.603zM705.597 115.2l33.603 158.403-160 68.797-46.403-57.6c-23.997-28.8-65.597-36.797-99.197-17.597-84.8 49.597-155.2 119.997-204.8 204.797-19.2 33.6-11.2 75.2 17.6 99.2l57.6 46.4-68.8 160-158.4-33.6c4.8-345.603 283.2-623.997 628.797-628.8z" />
<glyph unicode="&#xe917;" glyph-name="right-angle" horiz-adv-x="717" d="M590.397 475.2c14.403-16 14.403-40 0-54.397l-307.197-307.2c-16-16.005-40-16.005-54.4 0-16 14.397-16 38.4 0 52.797l280 280.003-280 281.597c-16 14.4-16 38.4 0 52.8 14.4 16 38.4 16 52.8 0l308.797-305.6z" />
<glyph unicode="&#xe918;" glyph-name="right-arrow" horiz-adv-x="717" d="M704 419.2l-281.6-268.8c-16-14.403-40-14.403-54.4 1.603-14.4 15.995-14.4 39.997 1.6 54.395l212.8 203.203h-544c-22.4 0-38.4 16-38.4 38.4 0 20.8 16 38.4 38.4 38.4h544l-212.8 201.6c-16 14.4-16 40-1.6 54.4 14.4 16 40 16 54.4 1.6l281.6-268.8c7.997-8 12.8-17.6 12.8-27.2 0-11.203-4.803-20.797-12.8-28.8z" />
<glyph unicode="&#xe919;" glyph-name="search" horiz-adv-x="870" d="M588.8 524.8c0 91.2-49.603 174.4-128 220.8-80 46.4-177.6 46.4-256 0-80-46.4-128-129.6-128-220.8 0-92.8 48-176 128-222.403 78.4-46.397 176-46.397 256 0 78.397 46.403 128 129.603 128 222.403zM539.197 262.4c-57.597-44.8-129.597-70.4-206.397-70.4-184 0-332.8 148.797-332.8 332.8 0 182.4 148.8 332.8 332.8 332.8 182.4 0 332.8-150.4 332.8-332.8 0-78.397-27.197-150.4-71.997-208l214.395-212.803c14.403-15.995 14.403-39.997 0-54.395-15.995-16.005-39.997-16.005-54.395 0l-214.405 212.797z" />
<glyph unicode="&#xe91a;" glyph-name="sub-close" d="M920.801-12.902l-396.001 399.002-399-399.002c-18-17.997-48-17.997-69 0-18 21.002-18 51 0 69.002l399 399-399 396c-18 18-18 48 0 69 21 18 51 18 69 0l399-399 396.001 399c17.997 18 48 18 68.997 0 18.002-21 18.002-51 0-69l-398.996-396 398.996-399c18.002-18.002 18.002-48 0-69.002-20.997-17.997-51-17.997-68.997 0z" />
<glyph unicode="&#xe91b;" glyph-name="translate" d="M290.88 530.304l-27.84-82.304h-71.040l119.168 320h82.176l118.656-320h-74.688l-27.84 82.304h-118.592zM395.456 577.408l-43.456 129.408h-3.136l-43.456-129.408h90.048zM0 832c0 33.948 13.486 66.505 37.49 90.51s56.562 37.49 90.51 37.49h448c33.948 0 66.502-13.486 90.509-37.49s37.491-56.562 37.491-90.51v-192h192c33.946 0 66.502-13.485 90.509-37.491s37.491-56.562 37.491-90.509v-448c0-33.946-13.485-66.502-37.491-90.509s-56.563-37.491-90.509-37.491h-448c-33.948 0-66.505 13.485-90.509 37.491s-37.491 56.563-37.491 90.509v192h-192c-33.948 0-66.505 13.485-90.51 37.491s-37.49 56.561-37.49 90.509v448zM128 896c-16.974 0-33.252-6.743-45.255-18.745s-18.745-28.281-18.745-45.255v-448c0-16.974 6.743-33.252 18.745-45.255s28.281-18.745 45.255-18.745h448c16.974 0 33.252 6.743 45.255 18.745s18.745 28.281 18.745 45.255v448c0 16.974-6.743 33.252-18.745 45.255s-28.281 18.745-45.255 18.745h-448zM584.832 256.32c12.352-19.264 25.728-37.312 40.32-54.144-47.872-36.8-107.072-64.064-177.152-82.688 11.392-13.888 28.864-40.64 35.52-55.488 72 22.976 133.12 54.016 184.704 95.616 49.728-42.56 111.296-74.56 187.52-94.208 8.512 16.256 26.496 43.072 40.256 56.96-72 16.192-131.648 44.416-180.48 82.176 43.584 47.808 78.208 105.664 103.744 176.448h76.736v67.008h-192v-67.008h48.96c-20.352-54.016-47.36-98.944-81.408-136.32-9.402 10.016-18.272 20.531-26.56 31.488-18.060-11.578-38.755-18.406-60.16-19.84z" />
<glyph unicode="&#xe91c;" glyph-name="twitter" horiz-adv-x="717" d="M102.4 806.4h512c56.003 0 102.4-46.4 102.4-102.4v-512c0-57.6-46.397-102.4-102.4-102.4h-512c-57.6 0-102.4 44.8-102.4 102.4v512c0 56 44.8 102.4 102.4 102.4zM577.597 672h-76.797l-124.8-144-108.8 144h-156.8l187.2-246.4-177.6-201.6h76.8l137.6 155.197 118.4-155.197h153.603l-195.203 257.6 166.397 190.4zM516.803 268.8h-43.203l-273.6 360h44.8l272.003-360z" />
<glyph unicode="&#xe91d;" glyph-name="twitter-hover" horiz-adv-x="717" d="M102.4 806.4h512c56.003 0 102.4-46.4 102.4-102.4v-512c0-57.6-46.397-102.4-102.4-102.4h-512c-57.6 0-102.4 44.8-102.4 102.4v512c0 56 44.8 102.4 102.4 102.4zM577.597 672h-76.797l-124.8-144-108.8 144h-156.8l187.2-246.4-177.6-201.6h76.8l137.6 155.197 118.4-155.197h153.603l-195.203 257.6 166.397 190.4zM516.803 268.8h-43.203l-273.6 360h44.8l272.003-360z" />
</font>
</defs>
</svg>
