<svg width="15" height="20" viewBox="0 0 15 20" fill="none" xmlns="http://www.w3.org/2000/svg">
<path d="M7.53125 3.25L12.7812 8.75C13.0625 9.0625 13.0625 9.53125 12.75 9.8125C12.4375 10.0938 11.9688 10.0938 11.6875 9.78125L7.75 5.625V16.25C7.75 16.6875 7.40625 17 7 17C6.5625 17 6.25 16.6875 6.25 16.25V5.625L2.28125 9.78125C2 10.0938 1.53125 10.0938 1.21875 9.8125C0.90625 9.53125 0.90625 9.03125 1.1875 8.75L6.4375 3.25C6.59375 3.09375 6.78125 3 7 3C7.1875 3 7.375 3.09375 7.53125 3.25Z" fill="#1E2B63"/>
</svg>
