<svg width="16" height="20" viewBox="0 0 16 20" fill="none" xmlns="http://www.w3.org/2000/svg">
<path d="M14.5 10C14.5 7.6875 13.25 5.5625 11.25 4.375C9.21875 3.21875 6.75 3.21875 4.75 4.375C2.71875 5.5625 1.5 7.6875 1.5 10C1.5 12.3438 2.71875 14.4688 4.75 15.6562C6.75 16.8125 9.21875 16.8125 11.25 15.6562C13.25 14.4688 14.5 12.3438 14.5 10ZM0 10C0 7.15625 1.5 4.53125 4 3.09375C6.46875 1.65625 9.5 1.65625 12 3.09375C14.4688 4.53125 16 7.15625 16 10C16 12.875 14.4688 15.5 12 16.9375C9.5 18.375 6.46875 18.375 4 16.9375C1.5 15.5 0 12.875 0 10ZM9.03125 13.2812C8.71875 13.5938 8.25 13.5938 7.96875 13.2812C7.65625 13 7.65625 12.5312 7.96875 12.2188L9.4375 10.75H4.75C4.3125 10.75 4 10.4375 4 10C4 9.59375 4.3125 9.25 4.75 9.25H9.4375L7.96875 7.78125C7.65625 7.5 7.65625 7.03125 7.96875 6.75C8.25 6.4375 8.71875 6.4375 9.03125 6.75L11.7812 9.5C12.0625 9.78125 12.0625 10.25 11.7812 10.5312L9.03125 13.2812Z" fill="#1E2B63"/>
</svg>
