<svg width="27" height="22" viewBox="0 0 27 22" fill="none" xmlns="http://www.w3.org/2000/svg">
<path d="M0 1.54883C0 1.08008 0.410156 0.611328 0.9375 0.611328H25.3125C25.7812 0.611328 26.25 1.08008 26.25 1.54883C26.25 2.07617 25.7812 2.48633 25.3125 2.48633H0.9375C0.410156 2.48633 0 2.07617 0 1.54883ZM0 10.9238C0 10.4551 0.410156 9.98633 0.9375 9.98633H25.3125C25.7812 9.98633 26.25 10.4551 26.25 10.9238C26.25 11.4512 25.7812 11.8613 25.3125 11.8613H0.9375C0.410156 11.8613 0 11.4512 0 10.9238ZM26.25 20.2988C26.25 20.8262 25.7812 21.2363 25.3125 21.2363H0.9375C0.410156 21.2363 0 20.8262 0 20.2988C0 19.8301 0.410156 19.3613 0.9375 19.3613H25.3125C25.7812 19.3613 26.25 19.8301 26.25 20.2988Z" fill="white"/>
</svg>
