<svg width="52" height="52" viewBox="0 0 52 52" fill="none" xmlns="http://www.w3.org/2000/svg"><path d="M20.302 21.977 C 18.026 24.150,16.109 26.004,16.043 26.096 C 15.963 26.209,15.948 26.317,15.999 26.422 C 16.042 26.509,17.961 28.380,20.265 30.580 C 23.271 33.451,24.509 34.580,24.650 34.580 C 24.870 34.580,25.133 34.334,25.133 34.128 C 25.133 34.053,23.446 32.380,21.384 30.408 L 17.635 26.823 27.198 26.780 C 36.538 26.738,36.764 26.733,36.884 26.568 C 37.034 26.363,37.041 26.156,36.903 26.017 C 36.823 25.938,34.548 25.913,27.189 25.913 C 21.903 25.913,17.592 25.881,17.608 25.841 C 17.624 25.801,19.080 24.393,20.843 22.713 C 25.487 18.288,25.313 18.479,24.997 18.163 C 24.661 17.826,24.588 17.886,20.302 21.977 " fill="white" stroke="none" fill-rule="evenodd"></path></svg>