<svg width="52" height="52" viewBox="0 0 52 52" fill="none" xmlns="http://www.w3.org/2000/svg"><path d="M27.010 17.578 C 26.931 17.666,26.867 17.798,26.867 17.872 C 26.867 17.946,28.560 19.620,30.629 21.592 C 32.699 23.563,34.395 25.206,34.399 25.241 C 34.403 25.277,30.069 25.316,24.767 25.328 L 15.128 25.350 15.043 25.590 C 14.976 25.780,14.990 25.861,15.109 25.980 C 15.249 26.120,15.897 26.133,24.820 26.173 L 34.380 26.217 30.790 29.640 C 28.815 31.523,27.125 33.156,27.033 33.270 C 26.831 33.521,26.824 33.658,27.003 33.837 C 27.339 34.174,27.412 34.114,31.698 30.023 C 33.974 27.850,35.891 25.996,35.957 25.904 C 36.037 25.791,36.052 25.683,36.001 25.578 C 35.958 25.492,34.038 23.621,31.734 21.421 C 28.739 18.560,27.489 17.420,27.349 17.420 C 27.242 17.420,27.089 17.491,27.010 17.578 " fill="white" stroke="none" fill-rule="evenodd"></path></svg>