<svg width="14" height="20" viewBox="0 0 14 20" fill="none" xmlns="http://www.w3.org/2000/svg">
<path d="M10.7812 6.28125L7.03125 10.0312L10.75 13.75C11.0625 14.0312 11.0625 14.5 10.75 14.7812C10.4688 15.0938 10 15.0938 9.71875 14.7812L5.96875 11.0625L2.25 14.7812C1.96875 15.0938 1.5 15.0938 1.21875 14.7812C0.90625 14.5 0.90625 14.0312 1.21875 13.7188L4.9375 10L1.21875 6.28125C0.90625 6 0.90625 5.53125 1.21875 5.21875C1.5 4.9375 1.96875 4.9375 2.28125 5.21875L6 8.96875L9.71875 5.25C10 4.9375 10.4688 4.9375 10.7812 5.25C11.0625 5.53125 11.0625 6 10.7812 6.28125Z" fill="#1E2B63"/>
</svg>
