<svg width="52" height="52" viewBox="0 0 52 52" fill="none" xmlns="http://www.w3.org/2000/svg"><path d="M25.989 16.177 C 25.890 16.295,25.863 17.947,25.827 25.849 L 25.783 35.377 22.273 31.690 C 20.327 29.646,18.670 27.976,18.555 27.942 C 18.261 27.856,18.070 28.007,18.070 28.327 C 18.070 28.567,18.537 29.088,22.086 32.803 C 25.077 35.934,26.152 37.007,26.299 37.007 C 26.445 37.007,27.521 35.933,30.516 32.796 C 34.026 29.120,34.537 28.552,34.537 28.321 C 34.537 27.989,34.327 27.837,34.030 27.953 C 33.914 27.999,32.245 29.686,30.321 31.703 L 26.823 35.369 26.780 25.844 C 26.733 15.615,26.754 16.033,26.303 16.033 C 26.196 16.033,26.054 16.098,25.989 16.177 " fill="white" stroke="none" fill-rule="evenodd"></path></svg>