<svg width="52" height="52" viewBox="0 0 52 52" fill="none" xmlns="http://www.w3.org/2000/svg"><path d="M26.038 15.116 C 25.874 15.236,25.869 15.462,25.827 24.810 L 25.783 34.380 22.360 30.790 C 20.477 28.815,18.844 27.125,18.730 27.033 C 18.479 26.831,18.342 26.824,18.163 27.003 C 17.825 27.341,17.882 27.411,21.977 31.700 C 24.150 33.975,26.004 35.891,26.097 35.957 C 26.209 36.037,26.317 36.052,26.422 36.001 C 26.508 35.958,28.379 34.039,30.579 31.735 C 33.454 28.727,34.580 27.492,34.580 27.350 C 34.580 27.130,34.334 26.867,34.128 26.867 C 34.054 26.867,32.371 28.562,30.388 30.635 L 26.782 34.403 26.759 24.821 C 26.737 15.450,26.733 15.237,26.568 15.116 C 26.357 14.962,26.250 14.962,26.038 15.116 " fill="white" stroke="none" fill-rule="evenodd"></path></svg>