<svg width="52" height="52" viewBox="0 0 52 52" fill="none" xmlns="http://www.w3.org/2000/svg"><path d="M26.038 19.103 C 25.874 19.223,25.869 19.449,25.827 28.806 L 25.783 38.386 22.235 34.666 C 20.284 32.620,18.631 30.924,18.561 30.898 C 18.492 30.871,18.341 30.911,18.226 30.987 C 17.775 31.283,17.838 31.362,21.950 35.671 C 24.084 37.907,25.925 39.811,26.042 39.903 C 26.197 40.025,26.299 40.048,26.422 39.990 C 26.514 39.946,28.388 38.029,30.585 35.729 C 33.662 32.509,34.580 31.499,34.580 31.333 C 34.580 31.053,34.226 30.804,34.001 30.926 C 33.914 30.973,32.264 32.667,30.333 34.691 L 26.823 38.371 26.780 28.798 C 26.738 19.449,26.733 19.223,26.568 19.103 C 26.357 18.948,26.250 18.948,26.038 19.103 " fill="white" stroke="none" fill-rule="evenodd"></path></svg>