<svg width="18" height="20" viewBox="0 0 18 20" fill="none" xmlns="http://www.w3.org/2000/svg">
<path d="M9 3.5C6.65625 3.5 4.53125 4.75 3.34375 6.75C2.1875 8.78125 2.1875 11.25 3.34375 13.25C4.53125 15.2812 6.65625 16.5 9 16.5C11.3125 16.5 13.4375 15.2812 14.625 13.25C15.7812 11.25 15.7812 8.78125 14.625 6.75C13.4375 4.75 11.3125 3.5 9 3.5ZM9 18C6.125 18 3.5 16.5 2.0625 14C0.625 11.5312 0.625 8.5 2.0625 6C3.5 3.53125 6.125 2 9 2C11.8438 2 14.4688 3.53125 15.9062 6C17.3438 8.5 17.3438 11.5312 15.9062 14C14.4688 16.5 11.8438 18 9 18ZM12.2812 11.0312L9.53125 13.7812C9.21875 14.0938 8.75 14.0938 8.46875 13.7812L5.71875 11.0312C5.40625 10.75 5.40625 10.2812 5.71875 10C6 9.6875 6.46875 9.6875 6.78125 10L8.25 11.4688V6.75C8.25 6.34375 8.5625 6 9 6C9.40625 6 9.75 6.34375 9.75 6.75V11.4688L11.2188 10C11.5 9.6875 11.9688 9.6875 12.25 10C12.5625 10.2812 12.5625 10.75 12.25 11.0312H12.2812Z" fill="#1E2B63"/>
</svg>
