<svg width="16" height="20" viewBox="0 0 16 20" fill="none" xmlns="http://www.w3.org/2000/svg">
<path d="M2 5.5C1.71875 5.5 1.5 5.75 1.5 6V6.71875L6.875 11.125C7.53125 11.6562 8.4375 11.6562 9.09375 11.125L14.5 6.71875V6C14.5 5.75 14.25 5.5 14 5.5H2ZM1.5 8.65625V14C1.5 14.2812 1.71875 14.5 2 14.5H14C14.25 14.5 14.5 14.2812 14.5 14V8.65625L10.0625 12.2812C8.84375 13.2812 7.125 13.2812 5.9375 12.2812L1.5 8.65625ZM0 6C0 4.90625 0.875 4 2 4H14C15.0938 4 16 4.90625 16 6V14C16 15.125 15.0938 16 14 16H2C0.875 16 0 15.125 0 14V6Z" fill="#1E2B63"/>
</svg>
