<svg width="15" height="13" viewBox="0 0 15 13" fill="none" xmlns="http://www.w3.org/2000/svg">
<path d="M14.793 6.01172C14.8477 6.06641 14.875 6.12109 14.875 6.17578C14.875 6.23047 14.8568 6.27604 14.8203 6.3125L14.5469 6.66797C14.5104 6.72266 14.4557 6.75 14.3828 6.75C14.3281 6.75 14.2826 6.73177 14.2461 6.69531L13.125 5.79297V12.4375C13.125 12.5469 13.0794 12.6471 12.9883 12.7383C12.9154 12.8294 12.8151 12.875 12.6875 12.875H9.1875C9.0599 12.875 8.95052 12.8294 8.85938 12.7383C8.78646 12.6654 8.75 12.5651 8.75 12.4375V8.9375H7V12.4375C7 12.5469 6.95443 12.6471 6.86328 12.7383C6.79036 12.8294 6.6901 12.875 6.5625 12.875H3.0625C2.9349 12.875 2.82552 12.8294 2.73438 12.7383C2.66146 12.6471 2.625 12.5469 2.625 12.4375V5.79297L1.50391 6.69531C1.46745 6.73177 1.42188 6.75 1.36719 6.75C1.29427 6.75 1.23958 6.72266 1.20312 6.66797L0.929688 6.3125C0.893229 6.27604 0.875 6.23047 0.875 6.17578C0.875 6.12109 0.902344 6.06641 0.957031 6.01172L7.32812 0.816406C7.49219 0.688802 7.67448 0.625 7.875 0.625C8.07552 0.625 8.25781 0.688802 8.42188 0.816406L12.25 3.93359V2.53906C12.25 2.42969 12.3047 2.375 12.4141 2.375H12.9609C13.0703 2.375 13.125 2.42969 13.125 2.53906V4.64453L14.793 6.01172ZM12.25 12V5.08203L7.875 1.5L3.5 5.08203V12H6.125V8.5C6.125 8.3724 6.16146 8.27214 6.23438 8.19922C6.32552 8.10807 6.4349 8.0625 6.5625 8.0625H9.1875C9.3151 8.0625 9.41536 8.10807 9.48828 8.19922C9.57943 8.27214 9.625 8.3724 9.625 8.5V12H12.25Z" fill="white"/>
</svg>
