<svg width="18" height="20" viewBox="0 0 18 20" fill="none" xmlns="http://www.w3.org/2000/svg">
<path d="M9 3.5C6.65625 3.5 4.53125 4.75 3.34375 6.75C2.1875 8.78125 2.1875 11.25 3.34375 13.25C4.53125 15.2812 6.65625 16.5 9 16.5C11.3125 16.5 13.4375 15.2812 14.625 13.25C15.7812 11.25 15.7812 8.78125 14.625 6.75C13.4375 4.75 11.3125 3.5 9 3.5ZM9 18C6.125 18 3.5 16.5 2.0625 14C0.625 11.5312 0.625 8.5 2.0625 6C3.5 3.53125 6.125 2 9 2C11.8438 2 14.4688 3.53125 15.9062 6C17.3438 8.5 17.3438 11.5312 15.9062 14C14.4688 16.5 11.8438 18 9 18ZM7.75 12.5H8.5V10.5H7.75C7.3125 10.5 7 10.1875 7 9.75C7 9.34375 7.3125 9 7.75 9H9.25C9.65625 9 10 9.34375 10 9.75V12.5H10.25C10.6562 12.5 11 12.8438 11 13.25C11 13.6875 10.6562 14 10.25 14H7.75C7.3125 14 7 13.6875 7 13.25C7 12.8438 7.3125 12.5 7.75 12.5ZM9 8C8.4375 8 8 7.5625 8 7C8 6.46875 8.4375 6 9 6C9.53125 6 10 6.46875 10 7C10 7.5625 9.53125 8 9 8Z" fill="#1E2B63"/>
</svg>
