<svg width="14" height="20" viewBox="0 0 14 20" fill="none" xmlns="http://www.w3.org/2000/svg">
<path d="M13 3C13.5312 3 14 3.46875 14 4.03125V16C14 16.5625 13.5312 17 13 17H0.96875C0.4375 17 0 16.5625 0 16V4.03125C0 3.46875 0.4375 3 0.96875 3H13ZM4.21875 15V8.34375H2.15625V15H4.21875ZM3.1875 7.40625C3.84375 7.40625 4.375 6.875 4.375 6.21875C4.375 5.5625 3.84375 5 3.1875 5C2.5 5 1.96875 5.5625 1.96875 6.21875C1.96875 6.875 2.5 7.40625 3.1875 7.40625ZM12 15V11.3438C12 9.5625 11.5938 8.15625 9.5 8.15625C8.5 8.15625 7.8125 8.71875 7.53125 9.25H7.5V8.34375H5.53125V15H7.59375V11.7188C7.59375 10.8438 7.75 10 8.84375 10C9.90625 10 9.90625 11 9.90625 11.75V15H12Z" fill="white"/>
</svg>
