<svg width="17" height="20" viewBox="0 0 17 20" fill="none" xmlns="http://www.w3.org/2000/svg">
<path d="M11.7188 10.625L15.2188 12.125C15.7812 12.3438 16.0938 12.9375 15.9688 13.5312L15.2188 17.0312C15.0938 17.5938 14.5625 18.0312 14 18.0312C13.7812 18.0312 13.5938 18 13.4062 18C13.0938 18 12.7812 17.9688 12.5 17.9375C5.46875 17.1875 0 11.25 0 4C0 3.4375 0.40625 2.90625 0.96875 2.78125L4.46875 2.03125C5.0625 1.90625 5.65625 2.21875 5.875 2.78125L7.375 6.28125C7.59375 6.78125 7.46875 7.375 7.03125 7.71875L5.75 8.78125C6.59375 10.2188 7.78125 11.4062 9.21875 12.25L10.2812 10.9688C10.625 10.5312 11.2188 10.4062 11.7188 10.625ZM13.7812 16.5L14.4375 13.4062L11.3125 12.0625L10.4062 13.1875C9.9375 13.75 9.125 13.9062 8.46875 13.5312C6.8125 12.5625 5.4375 11.1875 4.46875 9.53125C4.09375 8.875 4.25 8.0625 4.8125 7.59375L5.9375 6.6875L4.59375 3.5625L1.5 4.21875C1.59375 10.9688 7.03125 16.4062 13.7812 16.5Z" fill="#1E2B63"/>
</svg>
