<svg width="14" height="20" viewBox="0 0 14 20" fill="none" xmlns="http://www.w3.org/2000/svg">
<path d="M13.75 10.5625L8.25 15.8125C7.9375 16.0938 7.46875 16.0938 7.1875 15.7812C6.90625 15.4688 6.90625 15 7.21875 14.7188L11.375 10.75H0.75C0.3125 10.75 0 10.4375 0 10C0 9.59375 0.3125 9.25 0.75 9.25H11.375L7.21875 5.3125C6.90625 5.03125 6.90625 4.53125 7.1875 4.25C7.46875 3.9375 7.96875 3.9375 8.25 4.21875L13.75 9.46875C13.9062 9.625 14 9.8125 14 10C14 10.2188 13.9062 10.4062 13.75 10.5625Z" fill="#1E2B63"/>
</svg>
