<svg width="17" height="20" viewBox="0 0 17 20" fill="none" xmlns="http://www.w3.org/2000/svg">
<path d="M11.5 8.5C11.5 6.71875 10.5312 5.09375 9 4.1875C7.4375 3.28125 5.53125 3.28125 4 4.1875C2.4375 5.09375 1.5 6.71875 1.5 8.5C1.5 10.3125 2.4375 11.9375 4 12.8438C5.53125 13.75 7.4375 13.75 9 12.8438C10.5312 11.9375 11.5 10.3125 11.5 8.5ZM10.5312 13.625C9.40625 14.5 8 15 6.5 15C2.90625 15 0 12.0938 0 8.5C0 4.9375 2.90625 2 6.5 2C10.0625 2 13 4.9375 13 8.5C13 10.0312 12.4688 11.4375 11.5938 12.5625L15.7812 16.7188C16.0625 17.0312 16.0625 17.5 15.7812 17.7812C15.4688 18.0938 15 18.0938 14.7188 17.7812L10.5312 13.625Z" fill="#1E2B63"/>
</svg>
