<svg width="20" height="20" viewBox="0 0 20 20" fill="none" xmlns="http://www.w3.org/2000/svg">
<path d="M17.9844 19.002L10.25 11.209L2.45703 19.002C2.10547 19.3535 1.51953 19.3535 1.10938 19.002C0.757812 18.5918 0.757812 18.0059 1.10938 17.6543L8.90234 9.86133L1.10938 2.12695C0.757812 1.77539 0.757812 1.18945 1.10938 0.779297C1.51953 0.427734 2.10547 0.427734 2.45703 0.779297L10.25 8.57227L17.9844 0.779297C18.3359 0.427734 18.9219 0.427734 19.332 0.779297C19.6836 1.18945 19.6836 1.77539 19.332 2.12695L11.5391 9.86133L19.332 17.6543C19.6836 18.0059 19.6836 18.5918 19.332 19.002C18.9219 19.3535 18.3359 19.3535 17.9844 19.002Z" fill="white"/>
</svg>
