<svg width="101" height="87" viewBox="0 0 101 87" fill="none" xmlns="http://www.w3.org/2000/svg"><g clip-path="url(#a)" fill="#fff"><path d="M90.505 51.204c-1.786-.018-3.325-.364-4.789-1.061-.315-.15-.406-.301-.309-.661 1.11-4.117 4.845-7.228 9.108-7.605 1.944-.172 3.779.173 5.547.972.369.166.459.359.349.753-1.13 4.086-4.845 7.176-9.097 7.539-.324.028-.65.05-.81.063zM28.319 61.992c1.884.038 3.643.497 5.284 1.428.329.187.404.359.274.729-1.311 3.76-4.98 6.547-8.98 6.842-2.194.162-4.228-.299-6.144-1.367-.333-.187-.414-.364-.269-.725 1.597-3.967 4.502-6.246 8.745-6.816.36-.049.726-.063 1.089-.093v.002zM77.519 58.582c3.916-5.745 12.487-5.872 16.58-.61-3.719 5.57-12.289 6.023-16.58.61zM6.886 57.978c4.11-5.233 12.583-5.175 16.588.57-3.779 5.075-12.44 5.398-16.588-.57zM82.645 69.347c-5.752 3.78-13.716.885-15.623-5.64 5.308-3.621 13.445-1.293 15.623 5.64zM89.343 39.042c-1.067-6.786 4.445-12.7 11.144-12.127.154.013.395.227.416.374.783 5.527-3.296 10.876-8.854 11.603-.886.115-1.789.103-2.708.15h.002zM15.663 49.9C9.945 53.166 2.096 50.055.508 43.15c5.452-3.272 13.576-.331 15.155 6.752zM.153 26.938c2.634-.262 5.042.285 7.17 1.814 3.299 2.37 4.723 5.637 4.45 9.67-.025.373-.14.566-.581.589-5.354.281-9.915-3.21-10.986-8.452-.243-1.19-.283-2.392-.051-3.622l-.002.001zM96.18 18.148c-.048 4.138-2.61 7.674-6.387 8.984-.443.153-.643.061-.85-.337-2.668-5.094-.043-11.529 5.423-13.293.367-.119.53-.066.712.283a9.968 9.968 0 0 1 1.102 4.363zM13.089 22.5c.013 1.528-.37 2.956-1.044 4.322-.196.399-.404.452-.812.315C5.745 25.28 3.2 18.849 5.94 13.755c.175-.325.335-.368.678-.26 3.848 1.222 6.483 4.878 6.47 9.004l.002.001zM85.127 4.292c4.212 3.165 4.395 9.6.392 12.999-.242.206-.417.299-.73.05-4.03-3.203-3.935-9.932.198-12.994.029-.022.07-.027.14-.055zM15.909 17.552c-1.558-1.19-2.595-2.732-3.026-4.624-.734-3.226.146-5.99 2.536-8.285.377-.362.626-.386 1.04-.015 3.818 3.408 3.67 9.583-.33 12.778-.059.047-.126.084-.221.146zM30.79 1.387c.315.133.622.307.937.547.083.066.158.1.216.1.149 0 .25-.233.299-.68h.257a63.81 63.81 0 0 0-.041 2.743H32.2c-.066-.564-.158-.986-.273-1.276a1.802 1.802 0 0 0-.581-.77 1.945 1.945 0 0 0-.664-.415 2.289 2.289 0 0 0-.788-.14c-.763 0-1.327.372-1.709 1.119-.373.746-.555 1.673-.555 2.792 0 1.12.19 2.03.58 2.77.39.737.962 1.11 1.725 1.11a2.3 2.3 0 0 0 .771-.14c.25-.092.465-.233.639-.415.282-.208.473-.473.58-.796.108-.315.19-.788.258-1.392h.257c0 1.376.017 2.32.042 2.86h-.258a2.687 2.687 0 0 0-.09-.514c-.042-.1-.1-.149-.175-.149a.49.49 0 0 0-.24.091c-.34.24-.672.423-.98.555-.306.125-.68.19-1.119.19-.805 0-1.5-.165-2.107-.488a3.35 3.35 0 0 1-1.401-1.418c-.331-.622-.498-1.351-.498-2.205 0-.853.175-1.566.514-2.212a3.644 3.644 0 0 1 1.427-1.492c.614-.348 1.302-.53 2.09-.53.44-.034.828.025 1.143.157l.002-.002zm4.395 3.025c.341-.705.954-1.052 1.85-1.052.589 0 1.003.149 1.253.447.132.141.223.331.281.564.058.232.083.531.083.912V8.34c0 .307.05.523.158.638.108.117.3.174.573.174v.24a58.203 58.203 0 0 0-2.977 0v-.24c.232 0 .39-.058.473-.174.091-.117.133-.331.133-.638V4.81c0-.307-.05-.547-.15-.705-.098-.158-.289-.24-.554-.24-.316 0-.581.125-.797.365-.216.24-.323.564-.323.936v3.166c0 .307.041.522.133.638.09.116.249.174.473.174v.24c-.73-.025-2.19-.025-2.977 0v-.24c.265 0 .456-.058.564-.174.109-.117.166-.331.166-.638V1.867c0-.348-.057-.604-.166-.763-.108-.158-.299-.24-.564-.24v-.24c.24.026.473.034.705.034.664 0 1.211-.05 1.659-.158l.008 3.912h-.004zm19.06 4.558c.107.116.299.174.565.174v.24a55.362 55.362 0 0 0-2.904 0v-.24c.199 0 .349-.058.423-.174.083-.117.124-.331.124-.646V4.802c0-.315-.05-.555-.14-.713-.092-.158-.274-.232-.54-.232-.281 0-.523.116-.73.348-.207.24-.33.523-.364.862v3.257c0 .307.05.522.14.638.092.116.266.174.514.174v.24a53.143 53.143 0 0 0-2.844 0v-.24c.199 0 .349-.058.423-.174.083-.117.124-.331.124-.638V4.793c0-.315-.041-.555-.124-.713-.084-.158-.24-.232-.49-.232-.299 0-.564.132-.78.38-.215.25-.322.573-.322.937v3.158c0 .306.041.522.124.638.083.116.224.174.423.174v.24a55.292 55.292 0 0 0-2.904 0v-.24c.274 0 .465-.058.573-.174.109-.117.158-.332.158-.638V4.75c0-.348-.05-.604-.158-.763-.108-.158-.299-.24-.573-.24v-.24c.24.026.474.034.706.034.68 0 1.227-.05 1.659-.158v1.02c.331-.705.92-1.052 1.758-1.052.572 0 .995.149 1.252.447.141.15.24.381.282.68.19-.406.456-.696.771-.87.315-.174.688-.257 1.112-.257.572 0 .995.149 1.252.447.125.133.208.323.258.555.05.24.083.539.083.92v3.058c-.016.307.034.522.149.638zm5.797-4.857c.381.505.573 1.226.573 2.188 0 1.111-.24 1.932-.73 2.462-.48.523-1.111.788-1.874.788-.523 0-.946-.132-1.277-.398a2.13 2.13 0 0 0-.82.091c-.275.083-.49.19-.647.331l-.175-.099c.05-.19.083-.406.083-.63v-6.97c0-.348-.057-.604-.166-.762-.108-.158-.299-.24-.564-.24V.633c.24.025.464.033.705.033.664 0 1.211-.05 1.659-.158v3.928a1.72 1.72 0 0 1 .688-.796 1.92 1.92 0 0 1 1.045-.281c.622 0 1.12.249 1.5.754zm-1.459 4.492c.199-.464.307-1.185.307-2.139 0-.954-.083-1.6-.257-2.006-.174-.406-.423-.604-.747-.604a.958.958 0 0 0-.664.265c-.2.182-.34.414-.406.721v4.17c.25.198.53.306.838.306.414-.008.73-.249.93-.713zm7.183-.903l.199.066c-.15.489-.423.911-.813 1.26-.39.348-.88.513-1.46.513-.804 0-1.434-.257-1.916-.77-.473-.514-.713-1.269-.713-2.263s.25-1.807.763-2.345c.514-.539 1.178-.812 2.024-.812 1.427 0 2.14.837 2.14 2.519h-3.193a7.876 7.876 0 0 0-.016.53c0 .498.075.912.208 1.252.132.331.323.573.547.73.224.148.464.231.721.231.639 0 1.128-.307 1.51-.911zm-2.654-3.597c-.182.34-.29.854-.34 1.559h1.783c.016-.597-.042-1.094-.174-1.484-.133-.39-.332-.58-.597-.58-.266 0-.49.166-.672.505zm7.63-.44c.175.199.258.456.258.738 0 .281-.083.513-.24.687a.824.824 0 0 1-.638.266c-.266 0-.464-.066-.615-.199a.673.673 0 0 1-.232-.522c0-.365.167-.664.498-.888a.538.538 0 0 0-.133-.016.516.516 0 0 0-.182.026c-.29.041-.531.223-.73.522a1.675 1.675 0 0 0-.299.937v3.009c0 .348.083.588.258.729.174.132.44.198.812.198v.24a2.07 2.07 0 0 1-.257-.016 56.911 56.911 0 0 0-2.944 0 1.621 1.621 0 0 1-.232.016v-.24c.274 0 .464-.058.573-.174.108-.117.158-.331.158-.638V4.75c0-.348-.05-.604-.158-.763-.109-.158-.3-.24-.573-.24v-.24c.24.026.474.034.706.034.68 0 1.227-.05 1.658-.158v1.052c.141-.323.35-.588.623-.788.273-.2.58-.299.92-.299.34.008.597.117.77.315v.001zm3.144-.198c.24.075.423.149.556.24.083.05.14.083.198.083a.198.198 0 0 0 .174-.107.612.612 0 0 0 .092-.307h.24c-.026.39-.042 1.052-.042 1.997h-.24c-.066-.497-.216-.92-.448-1.26-.232-.34-.572-.505-1.003-.505a.846.846 0 0 0-.565.19.672.672 0 0 0-.224.53c0 .258.084.482.258.664.174.19.448.406.82.68l.332.24c.464.348.805.663 1.02.936.224.274.332.614.332 1.02 0 .331-.091.622-.29.887-.19.257-.456.456-.78.589-.322.132-.68.198-1.077.198-.399 0-.772-.083-1.063-.24a5.142 5.142 0 0 0-.522-.24c-.084-.025-.141 0-.199.075a.855.855 0 0 0-.133.323h-.24c.026-.431.042-1.185.042-2.271h.24c.149 1.392.664 2.088 1.534 2.088a.84.84 0 0 0 .565-.199c.158-.132.232-.34.232-.604 0-.208-.05-.406-.141-.572a1.84 1.84 0 0 0-.357-.448 9.471 9.471 0 0 0-.646-.53c-.341-.274-.597-.49-.78-.664a2.297 2.297 0 0 1-.456-.588 1.551 1.551 0 0 1-.19-.763c0-.481.19-.87.573-1.152.382-.283.838-.415 1.385-.415.299.017.555.05.804.125zm-29.152 5.47a.528.528 0 0 1-.3.117c-.099 0-.165-.033-.198-.117-.032-.083-.05-.198-.05-.39V5.457c0-.414-.025-.747-.083-.986a1.218 1.218 0 0 0-.34-.614 1.582 1.582 0 0 0-.68-.39 3.352 3.352 0 0 0-.962-.117c-.364 0-.68.034-.987.1a2.669 2.669 0 0 0-.755.281 1.707 1.707 0 0 0-.473.414.955.955 0 0 0-.149.539c0 .25.075.464.216.622.14.166.349.249.614.249.25 0 .464-.083.63-.232.175-.149.258-.348.258-.614a.85.85 0 0 0-.175-.53 1.055 1.055 0 0 0-.497-.34c.19-.183.464-.274.829-.274.307 0 .539.083.688.265.149.183.224.423.224.737v.888a.534.534 0 0 1-.29.48c-.19.117-.497.24-.912.39a7.53 7.53 0 0 0-.97.39c-.25.125-.465.3-.647.514-.183.224-.266.505-.266.845 0 .406.125.738.357.987.24.24.597.372 1.086.372.73 0 1.286-.306 1.667-.92.008.282.091.506.258.672.166.166.464.25.88.25.447 0 .828-.117 1.143-.34l-.116-.159v.002zm-2.19-.663c-.224.307-.473.464-.771.464a.66.66 0 0 1-.514-.224c-.133-.149-.19-.373-.19-.687 0-.349.083-.622.231-.82.15-.191.373-.381.672-.573.3-.182.49-.348.581-.497l-.008 2.337h-.001z"/><g><path d="M35.495 18.093l-.926-1.845h-1.05v1.232l.006.613h-.88l.006-.613v-3.435l-.007-.613h2.036c.736 0 1.761.19 1.761 1.39 0 .774-.482 1.16-1.03 1.322l1.109 1.936v.013h-1.025zm-1.977-2.51h.965c.496 0 1.064-.084 1.064-.742 0-.698-.568-.743-1.076-.743h-.953v1.486zM37.648 18.092h-.816l1.696-4.66h.985l1.676 4.66h-.926l-.404-1.225h-1.794l-.417 1.225zm.64-1.883h1.35l-.66-2.008h-.012l-.679 2.008zM44.92 13.432h.802l-.007.612v3.436l.007.612h-.712l-2.413-3.285h-.013l.013.41v2.263l.007.612H41.8l.007-.612v-3.436l-.007-.612h.783l2.341 3.175h.013l-.013-.411v-2.152l-.007-.612h.001zM46.908 17.48v-3.436l-.007-.612h.874l-.007.612v1.636h.013l2.035-2.248h.999v.013l-1.559 1.662 1.736 2.973v.012H50l-1.331-2.359-.9.965v.782l.006.612h-.874l.007-.612zM54.489 16.071h-2.082v1.336h2.57v.684h-3.438l.007-.612v-3.436l-.007-.612h3.418v.684h-2.55v1.271h2.082v.685zM55.793 13.432h1.67c1.173 0 2.485.489 2.485 2.34 0 1.85-1.318 2.32-2.486 2.32h-1.669l.007-.612v-3.436l-.007-.612zm.867 3.996h.743c1.012 0 1.637-.43 1.637-1.623s-.62-1.707-1.637-1.707h-.743v3.33zM62.38 18.092l.007-.612v-3.436l-.007-.612h.874l-.007.612v3.436l.007.612h-.874zM67.552 13.432h.802l-.007.612v3.436l.007.612h-.711l-2.414-3.285h-.013l.013.41v2.263l.007.612h-.802l.007-.612v-3.436l-.007-.612h.782l2.343 3.175h.012l-.012-.411v-2.152l-.007-.612z"/></g><g><path d="M42.465 72.94h-5.127c.007-.621.157-1.165.45-1.628A4.11 4.11 0 0 1 38.99 70.1c.243-.178.497-.351.762-.52.265-.167.508-.348.73-.54.221-.194.404-.402.547-.628.143-.225.218-.485.225-.778 0-.136-.016-.28-.048-.434a1.116 1.116 0 0 0-.574-.761c-.165-.089-.379-.134-.643-.134-.244 0-.446.048-.606.144-.16.097-.29.229-.386.397a1.965 1.965 0 0 0-.214.595 4.308 4.308 0 0 0-.081.74h-1.223c0-.414.056-.799.166-1.153.111-.354.277-.658.5-.916.22-.257.49-.459.81-.605.318-.147.688-.22 1.11-.22.457 0 .84.076 1.148.226.307.15.556.339.745.567.19.228.324.477.402.745.079.268.118.524.118.766 0 .3-.046.573-.14.815a2.652 2.652 0 0 1-.375.67 3.746 3.746 0 0 1-.537.563c-.2.172-.407.332-.622.482-.215.15-.43.293-.644.43a9.518 9.518 0 0 0-.596.407 3.462 3.462 0 0 0-.477.423 1.21 1.21 0 0 0-.279.466h3.657v1.094zM46.939 65.287c.536 0 .974.124 1.313.37.34.248.604.561.794.944.19.382.32.802.387 1.26.068.457.102.901.102 1.33 0 .427-.034.871-.102 1.328a4.198 4.198 0 0 1-.386 1.26 2.54 2.54 0 0 1-.795.944c-.34.246-.778.37-1.313.37-.536 0-.975-.124-1.314-.37a2.542 2.542 0 0 1-.794-.944 4.211 4.211 0 0 1-.387-1.26 9.01 9.01 0 0 1-.102-1.329c0-.429.034-.872.102-1.329.068-.457.196-.877.387-1.26.189-.381.453-.696.794-.943.34-.247.778-.37 1.314-.37zm0 6.785a.986.986 0 0 0 .664-.23c.18-.154.32-.362.424-.623a3.69 3.69 0 0 0 .22-.916c.042-.35.064-.72.064-1.114 0-.393-.022-.763-.065-1.11a3.824 3.824 0 0 0-.219-.916 1.568 1.568 0 0 0-.424-.627.986.986 0 0 0-.664-.231.995.995 0 0 0-.671.23 1.564 1.564 0 0 0-.418.628c-.104.264-.177.57-.22.916a9.079 9.079 0 0 0-.064 1.11c0 .393.022.765.065 1.114.042.351.116.656.219.916.104.261.242.469.418.622.175.154.398.23.67.23zM56.539 72.94h-5.127c.007-.621.157-1.165.45-1.628a4.11 4.11 0 0 1 1.202-1.212c.244-.178.496-.351.762-.52.264-.167.508-.348.73-.541.221-.193.404-.401.547-.628.143-.225.218-.484.225-.777 0-.136-.016-.28-.049-.434a1.116 1.116 0 0 0-.574-.761c-.164-.09-.378-.134-.643-.134-.244 0-.446.048-.607.144-.16.096-.29.229-.386.397a1.967 1.967 0 0 0-.215.595 4.297 4.297 0 0 0-.08.74H51.55c0-.414.055-.799.166-1.153.11-.354.277-.658.499-.916.221-.257.491-.459.81-.605.319-.147.688-.22 1.11-.22.458 0 .841.075 1.148.225.307.15.556.34.746.568.19.228.323.476.401.745.079.269.118.524.118.766 0 .3-.046.572-.14.815a2.652 2.652 0 0 1-.375.67 3.741 3.741 0 0 1-.536.563c-.201.172-.408.332-.623.482-.214.15-.43.293-.643.43a9.488 9.488 0 0 0-.595.406 3.47 3.47 0 0 0-.477.424 1.212 1.212 0 0 0-.28.466h3.658v1.094zM60.475 68.546c.2.007.401-.007.6-.042.2-.036.38-.098.537-.188.157-.09.285-.213.381-.37a1.08 1.08 0 0 0 .145-.58c0-.322-.109-.579-.327-.771-.218-.193-.499-.29-.842-.29-.214 0-.4.043-.557.128a1.145 1.145 0 0 0-.392.348c-.103.147-.18.312-.23.493-.05.182-.072.37-.065.563h-1.223c.014-.365.082-.703.205-1.013.121-.31.287-.58.498-.808a2.23 2.23 0 0 1 .767-.537c.3-.128.64-.193 1.02-.193.293 0 .58.043.863.13.283.085.537.21.762.374a1.816 1.816 0 0 1 .746 1.5c0 .38-.086.71-.258.992-.172.283-.44.488-.804.616v.022c.429.086.763.299 1.003.638.239.34.359.752.359 1.238a2.094 2.094 0 0 1-.794 1.677 2.67 2.67 0 0 1-.848.456c-.322.107-.661.16-1.02.16-.436 0-.816-.062-1.142-.188a2.192 2.192 0 0 1-.815-.53 2.292 2.292 0 0 1-.499-.825 3.36 3.36 0 0 1-.182-1.072h1.222c-.014.457.098.838.339 1.142.239.304.599.456 1.078.456.407 0 .749-.117 1.024-.349.274-.231.413-.563.413-.99 0-.294-.058-.525-.172-.697a1.101 1.101 0 0 0-.45-.391 1.845 1.845 0 0 0-.628-.166 5.812 5.812 0 0 0-.714-.022v-.912.001z"/></g><g><path d="M40.645 31.839v6.477c0 .83.16 1.536.724 2.082.477.477 1.236.813 2.26.813 1.024 0 1.749-.336 2.207-.794.547-.547.724-1.27.724-2.1v-6.478l-.017-1.676h2.26l-.017 1.676v6.353c0 1.394-.3 2.647-1.254 3.6-.83.83-2.172 1.323-3.973 1.323-1.801 0-3.214-.512-4.044-1.323-1.007-.989-1.22-2.276-1.22-3.794v-6.16l-.017-1.675h2.384l-.017 1.676zM51.666 41.122v-9.3l-.017-1.66h2.367l-.018 1.66v4.43h.036l5.51-6.09h2.703v.036l-4.221 4.5 4.697 8.048v.036H60.04l-3.603-6.389L54 39.005v2.118l.018 1.659H51.65l.017-1.659v-.001z"/></g><g><path d="M3.742 85.603l.633-.746c.44.418 1.028.7 1.598.7.69 0 1.07-.313 1.07-.79 0-.505-.397-.666-.953-.902l-.838-.363c-.604-.252-1.24-.73-1.24-1.624 0-.976.862-1.727 2.058-1.727.716 0 1.41.296 1.89.78l-.559.69c-.39-.332-.806-.526-1.33-.526-.582 0-.961.273-.961.72 0 .481.466.66.975.868l.827.346c.73.303 1.24.765 1.24 1.652 0 .993-.826 1.821-2.202 1.821a3.16 3.16 0 0 1-2.208-.897v-.002zM8.873 84.09c0-1.533 1.042-2.417 2.19-2.417 1.147 0 2.19.885 2.19 2.417 0 1.532-1.043 2.41-2.19 2.41-1.148 0-2.19-.885-2.19-2.41zm3.27 0c0-.922-.406-1.537-1.08-1.537s-1.08.615-1.08 1.537c0 .922.406 1.529 1.08 1.529s1.08-.607 1.08-1.529zM14.324 81.786h.886l.082.622h.03c.412-.401.88-.735 1.51-.735.987 0 1.418.667 1.418 1.829v2.885h-1.08V83.64c0-.757-.217-1.041-.716-1.041-.405 0-.67.198-1.05.573v3.215h-1.08v-4.602.001zM19.573 81.786h.886l.082.622h.03c.412-.401.88-.735 1.51-.735.987 0 1.418.667 1.418 1.829v2.885h-1.08V83.64c0-.757-.217-1.041-.716-1.041-.405 0-.67.198-1.05.573v3.215h-1.08v-4.602.001zM26.792 80.261h1.23l1.083 2.994c.136.39.259.802.394 1.203h.038c.135-.401.252-.813.387-1.203l1.06-2.994h1.23v6.127h-.997v-2.803c0-.566.087-1.381.138-1.948h-.037l-.495 1.423-1.009 2.752h-.645l-1.012-2.752-.488-1.424h-.037c.052.568.139 1.384.139 1.949v2.803h-.979v-6.127zM33.435 85.151c0-.985.818-1.498 2.708-1.701-.015-.495-.214-.907-.836-.907-.457 0-.889.207-1.294.453l-.397-.72c.505-.318 1.159-.603 1.89-.603 1.15 0 1.717.709 1.717 1.99v2.725h-.885l-.082-.51h-.03c-.412.352-.886.622-1.43.622-.805 0-1.36-.547-1.36-1.349zm2.708.004V84.12c-1.25.157-1.665.483-1.665.948 0 .407.277.585.664.585.386 0 .66-.183 1-.498zM38.216 84.09c0-1.533 1.084-2.417 2.31-2.417a1.97 1.97 0 0 1 1.346.517l-.525.7c-.244-.213-.477-.337-.766-.337-.742 0-1.256.615-1.256 1.537 0 .922.507 1.529 1.223 1.529.36 0 .69-.177.952-.397l.439.712a2.279 2.279 0 0 1-1.504.566c-1.256 0-2.22-.885-2.22-2.41h.001zM42.851 81.786h.886l.081.628h.03c.39-.406.836-.74 1.415-.74.675 0 1.06.306 1.27.824.442-.468.896-.825 1.482-.825.97 0 1.42.667 1.42 1.829v2.885h-1.079V83.64c0-.757-.225-1.041-.708-1.041-.292 0-.608.186-.964.573v3.215h-1.08V83.64c0-.757-.226-1.041-.71-1.041-.285 0-.607.186-.963.573v3.215h-1.08v-4.602.001zM50.63 80.37c0-.364.286-.61.668-.61.382 0 .667.246.667.61 0 .363-.285.61-.667.61-.382 0-.667-.255-.667-.61zm.124 1.416h1.08v4.602h-1.08v-4.602zM53.21 85.203V79.77h1.081v5.49c0 .266.12.36.233.36.048 0 .086 0 .168-.019l.135.806a1.508 1.508 0 0 1-.57.093c-.765 0-1.046-.495-1.046-1.297zM55.75 85.203V79.77h1.081v5.49c0 .266.12.36.232.36.048 0 .087 0 .169-.019l.135.806a1.508 1.508 0 0 1-.57.093c-.766 0-1.046-.495-1.046-1.297zM58.044 85.151c0-.985.818-1.498 2.708-1.701-.016-.495-.214-.907-.836-.907-.457 0-.89.207-1.294.453l-.398-.72c.507-.318 1.16-.603 1.89-.603 1.151 0 1.718.709 1.718 1.99v2.725h-.885l-.082-.51h-.03c-.413.352-.886.622-1.43.622-.805 0-1.36-.547-1.36-1.349zm2.708.004V84.12c-1.25.157-1.665.483-1.665.948 0 .407.277.585.664.585.386 0 .66-.183 1-.498zM63.128 81.786h.886l.082.622h.03c.412-.401.88-.735 1.511-.735.986 0 1.418.667 1.418 1.829v2.885h-1.08V83.64c0-.757-.218-1.041-.717-1.041-.405 0-.67.198-1.049.573v3.215h-1.08v-4.602.001zM69.736 80.261h1.118l.532 3.096c.1.651.204 1.303.304 1.956h.037c.126-.652.262-1.31.397-1.957l.754-3.095h.945l.754 3.096c.135.635.27 1.297.405 1.956h.038c.1-.658.198-1.315.297-1.957l.532-3.095h1.042l-1.177 6.127h-1.346l-.76-3.227a33.443 33.443 0 0 1-.271-1.408h-.038c-.084.465-.177.933-.277 1.409l-.743 3.226h-1.324l-1.219-6.127zM77.375 85.151c0-.985.817-1.498 2.707-1.701-.015-.495-.213-.907-.836-.907-.457 0-.889.207-1.294.453l-.397-.72c.507-.318 1.16-.603 1.89-.603 1.15 0 1.718.709 1.718 1.99v2.725h-.886l-.082-.51h-.03c-.412.352-.885.622-1.429.622-.806 0-1.361-.547-1.361-1.349zm2.707.004V84.12c-1.249.157-1.665.483-1.665.948 0 .407.278.585.664.585.387 0 .66-.183 1.001-.498zM82.459 85.203V79.77h1.08v5.49c0 .266.12.36.233.36.048 0 .086 0 .168-.019l.135.806a1.508 1.508 0 0 1-.57.093c-.765 0-1.046-.495-1.046-1.297zM85 79.77h1.058v4.133h.03l1.706-2.117h1.18l-1.577 1.874 1.74 2.728h-1.175l-1.184-1.997-.72.828v1.17H85v-6.62zM89.374 84.09c0-1.495 1.039-2.417 2.122-2.417 1.246 0 1.901.9 1.901 2.185 0 .207-.022.412-.047.525h-2.923c.09.817.615 1.282 1.357 1.282.394 0 .731-.124 1.07-.334l.367.67a2.856 2.856 0 0 1-1.579.499c-1.27 0-2.268-.892-2.268-2.41zm3.09-.442c0-.708-.315-1.14-.945-1.14-.537 0-1.009.402-1.103 1.14h2.048zM94.432 81.786h.885l.082.82h.03c.328-.6.816-.933 1.31-.933.233 0 .381.03.52.094l-.187.937a1.563 1.563 0 0 0-.472-.075c-.367 0-.81.251-1.088.951v2.807h-1.08v-4.602.001z"/></g></g><defs><clipPath id="a"><path fill="#fff" transform="translate(0 .5)" d="M0 0h101v86H0z"/></clipPath></defs></svg>