<svg xmlns="http://www.w3.org/2000/svg" width="53" height="52" viewBox="0 0 53 52" fill="none"><rect x="1" y=".5" width="51" height="51" rx="25.5" stroke="#fff"/><path d="M34.968 27.662l-7.861 8.225a.438.438 0 0 1-.31.134.42.42 0 0 1-.308-.134l-7.861-8.225a.468.468 0 0 1 0-.647.427.427 0 0 1 .309-.134c.116 0 .227.048.309.134l7.115 7.445V15.457c0-.121.046-.238.128-.323a.427.427 0 0 1 .309-.134c.116 0 .227.048.309.134a.468.468 0 0 1 .128.323V34.46l7.115-7.445a.427.427 0 0 1 .309-.134c.116 0 .227.048.309.134a.469.469 0 0 1 0 .647z" fill="#fff"/></svg>