<svg width="56" height="87" viewBox="0 0 56 87" fill="none" xmlns="http://www.w3.org/2000/svg"><g clip-path="url(#a)" fill="#fff"><path d="M29.73 6.593c.112.183.192.556.385.556l1.269-1.485h.14c.029 3.027.08 5.814.052 8.893-.028.08-.14.029-.22.052-.442-2.895-.55-5.894-2.092-8.337a1.547 1.547 0 0 0-.963-.637c-.357-.08-.658.184-.827.477l-.193.636.028 20.339c.056.32.22.637.55.769.277.051.634.051.879-.132.329-.27.291-.665.291-1.061v-8.894c-.193-.24-.813.08-.785-.293 1.542 0 3.055-.108 4.596-.028-.056.292-.521.052-.662.32v9.852c-.08.08.084.372-.165.264l-1.24-1.938h-.08c-.357.849-.992 1.938-2.063 2.07-1.236.24-2.449-.24-3.168-1.302-1.349-2.414-1.349-5.39-1.513-8.285-.057-3.452-.085-6.984.963-10.063.414-1.222 1.349-2.735 2.834-2.948.935-.16 1.57.477 1.983 1.17M47.432 5.715c-.385.104-.827-.051-1.184.132V27.54c.357.212.827.028 1.184.028 1.072-.689 1.405-1.938 1.79-3.027.607-1.887.964-3.877 1.157-5.924.052-.051.136-.023.193-.023.14 3.027.051 6.338.08 9.285-2.726.08-6.058.028-8.507 0v-.15c.301-.08.658.103.88-.161-.029-7.196.027-14.364 0-21.716-.273-.132-.687-.028-.964-.108-.052-.184.193-.132.329-.16 1.654-.053 3.36 0 5.038-.029v.16h.004zM10.62 5.583c.109.052.086.184.057.24-.413.03-1.005-.103-1.334.133v21.612c.329.212.648 0 1.034.08.634-.24.883-.9 1.184-1.405 1.071-2.334 1.541-4.914 1.875-7.54h.22c.029 3.027.057 6.21-.056 9.186l-8.482-.029c-.005-.391.77-.141 1.02-.358V5.847l-.828-.051v-.213h5.316-.005zM22.971 14.161h-.235c-.413-2.631-.799-5.258-1.983-7.568-.47-.665-1.349-.826-2.068-.689l-.131.132v10.276c0 .051-.01.132.075.183.662-.103 1.043-.768 1.292-1.273.442-1.301.743-2.655.855-4.088.057-.052.108-.029.193-.029.028 3.636.028 7.38 0 11.045-.056.08-.164.08-.22.08-.142-.585-.165-1.222-.25-1.835-.357-1.273-.333-2.947-1.79-3.584h-.16V27.46c0 .109-.01.213.103.213 1.434.184 2.012-1.382 2.505-2.283.77-2.046 1.184-4.22 1.485-6.427.08-.052.179-.08.263-.029v8.87l-.094.08-8.482-.027v-.184c.277-.109.784.08 1.005-.16V5.903c-.272-.184-.592 0-.836-.16v-.08c2.726-.052 5.658-.052 8.464 0v8.497h.01zM41.098 27.62C40.712 25.55 38.87 6.03 38.87 6.03l-.08-.4a9.683 9.683 0 0 0-1.734 0l-.329 2.07-2.67 18.32c-.112.557-.22 1.222-.855 1.514-.14.184-.69 0-.47.344l2.81-.028c.137-.292-.248-.24-.385-.292-.578-.24-.742-.797-.799-1.326.165-1.037.193-2.122.47-3.13l2.397-.029.136.104c.137 1.49.301 2.843.358 4.357-.25.16-.55.104-.856.16.029.052-.023.132.029.16l4.76-.028v-.184l-.55-.023h-.004zm-3.939-4.782c-.77-.028-1.57.052-2.312-.08l1.598-10.86.855 10.832-.136.104-.005.004zM18.328 29.322c-.385 1.83-2.09 3.848-4.13 4.14-2.064.321-4.324.133-6.387-.08l-.08.213-.306 2.683.057.052c2.646-1.674 6.913-1.755 9.554-.052 1.462 1.037 2.176 2.551 1.899 4.3-.221 1.675-1.847 3.212-3.469 3.636-3.054.878-6.8.585-9.225-1.353-.77-.608-.992-1.537-.799-2.466.193-.797.964-1.566 1.763-1.778.77-.212 1.626-.08 2.26.344.714.557 1.128 1.273 1.1 2.127-.028.9-.635 1.75-1.485 2.174-.306.132-.663.16-.964.292 1.377.717 3.083.825 4.766.745v-8.813c-2.068-.24-3.939.372-5.565 1.405l-.329-.184c.221-2.495.55-5.046.827-7.54l.085-.029c3.276.505 7.157.981 10.433.189M49.36 31.925c-1.213-1.542-2.862-2.5-4.761-2.683-2.726-.264-5.066.849-6.664 3-1.706 2.121-1.847 5.55-.77 7.992.99 2.363 3.524 4.33 6.17 4.461 2.946.109 5.536-1.806 6.72-4.272 1.292-2.575 1.1-6.215-.69-8.498M44.762 44.14a3.977 3.977 0 0 1-2.227 0V29.747c.662-.16 1.541-.264 2.227-.029V44.14zM33.889 33.09c-.527-1.113-1.514-2.259-2.674-2.895-2.035-1.222-5.203-1.302-7.214.052-2.59 1.674-3.854 4.3-3.633 7.3.193 2.918 2.232 5.842 5.174 6.823 2.782.849 5.508-.264 7.322-2.362 1.955-2.34 2.505-6.216 1.02-8.923m-5.259 11.016a4.469 4.469 0 0 1-2.204 0V29.766c.663-.184 1.57-.184 2.204 0V44.1zM24.658 3.292c-.033.146-.098.457-.094.603.014.274.259.222.508.222l-.038.198c-.3-.005-.601-.019-.902-.024-.296.005-.602.02-.898.024l.038-.198c.465.005.498-.07.592-.557l.54-2.843h-.075c-.606 0-.888.056-1.085.764h-.212l.212-1.033c.517.005 1.043.019 1.56.024.475-.01.95-.02 1.433-.024v.481c.014.203.033.4.052.608h-.212c-.098-.632-.272-.815-.845-.815h-.085l-.489 2.574v-.004zM27.191 1.344c.033-.156.16-.707.16-.868 0-.212-.286-.212-.418-.212l.042-.184L28.122 0l-.597 2.556.014.047c.179-.41.663-.877 1.105-.877.376 0 .521.231.521.42 0 .188-.033.391-.089.57l-.179.627a2.307 2.307 0 0 0-.098.415c0 .076.042.165.113.165.192 0 .366-.41.45-.575l.104.038c-.15.405-.475.952-.902.952-.216 0-.404-.193-.404-.443 0-.193.065-.429.122-.613l.169-.622c.033-.118.099-.35.099-.472 0-.123-.062-.203-.179-.203-.202 0-.508.33-.606.505-.16.288-.353.58-.447.9l-.24.83h-.587l.691-2.876h.01zM32.07 3.428c-.362.6-.7.859-1.377.859-.503 0-.795-.354-.795-.925 0-.924.729-1.65 1.584-1.65.287 0 .691.028.691.42 0 .627-1.09 1.075-1.617 1.22-.018.119-.051.322-.051.44 0 .24.225.301.37.301.541 0 .903-.519 1.087-.764l.103.1h.005zm-.386-1.344c0-.188-.122-.235-.343-.202-.432.066-.672.886-.747 1.226.371-.123 1.09-.533 1.09-1.024zM21.566 2.815H5.216v.297h16.35v-.297zM50.61 2.815H33.54v.297h17.07v-.297zM50.558 47.34H5.22v.298h45.337v-.297z"/><g><path d="M5.259 52.896v-1.924h.63v1.9c0 .703.314 1.005.864 1.005s.86-.302.86-1.005v-1.9h.62v1.924c0 .995-.559 1.533-1.484 1.533-.926 0-1.49-.543-1.49-1.533zM12.139 50.972v3.41h-.522L9.742 52.07v2.31h-.625v-3.409h.522l1.875 2.31v-2.31h.625zM13.055 50.972h.63v3.41h-.63v-3.41zM15.297 51.51h-1.128v-.538h2.886v.538h-1.128v2.872h-.63V51.51zM20.081 53.853v.533h-2.547v-3.41h2.482v.534h-1.852v.886h1.64v.519h-1.64v.938h1.917zM20.786 50.972h1.485c1.1 0 1.857.684 1.857 1.707 0 1.023-.752 1.707-1.857 1.707h-1.485v-3.414zm1.457 2.872c.757 0 1.245-.462 1.245-1.17 0-.707-.488-1.17-1.245-1.17h-.827v2.34h.827zM27.31 52.957l-.541.557v.872h-.63v-3.41h.63v1.75l1.678-1.75h.71l-1.43 1.524 1.514 1.886h-.738l-1.198-1.429h.004zM29.683 50.972h.63v3.41h-.63v-3.41zM34.25 50.972v3.41h-.521l-1.875-2.311v2.31h-.625v-3.409h.521l1.875 2.31v-2.31h.625zM37.489 52.641h.596V54c-.352.287-.85.433-1.33.433-1.052 0-1.828-.735-1.828-1.754 0-1.018.776-1.754 1.843-1.754.568 0 1.043.189 1.362.556l-.4.392a1.259 1.259 0 0 0-.934-.392c-.724 0-1.232.49-1.232 1.198 0 .707.508 1.198 1.227 1.198.244 0 .48-.047.7-.175v-1.06h-.005zM38.917 50.972h1.485c1.1 0 1.856.684 1.856 1.707 0 1.023-.752 1.707-1.856 1.707h-1.485v-3.414zm1.457 2.872c.756 0 1.245-.462 1.245-1.17 0-.707-.489-1.17-1.245-1.17h-.827v2.34h.827zM42.686 52.68c0-1.01.776-1.755 1.828-1.755 1.053 0 1.828.74 1.828 1.754s-.775 1.754-1.828 1.754-1.828-.745-1.828-1.754zm3.027 0c0-.699-.508-1.199-1.194-1.199-.686 0-1.194.5-1.194 1.198s.508 1.198 1.194 1.198c.686 0 1.194-.5 1.194-1.198zM50.14 54.382v-2.26l-1.123 1.873h-.282l-1.119-1.844v2.23h-.601v-3.409h.521l1.35 2.259 1.324-2.259h.522v3.41h-.592z"/></g><g><path d="M3.9 69.868c-.051.363-.08.773-.08 1.226l-.037.038-2.575-.024c-.428 0-.733.01-.912.024l-.038-.038v-.104l.02-.047c.173-.118.267-.189.281-.217.024-.042.033-.207.038-.495l.01-.835V67.51c0-.59-.015-.976-.048-1.155-.014-.071-.052-.118-.122-.137a3.679 3.679 0 0 0-.414-.038l-.037-.038v-.254l.037-.033c.245.014.602.023 1.072.023.47 0 .855-.01 1.109-.023l.038.033v.254l-.038.033c-.24.015-.38.029-.414.038-.07.019-.108.066-.122.137-.028.18-.047.561-.047 1.155v2.226c0 .325.005.641.02.943h.478c.691 0 1.114-.028 1.27-.085.028-.01.046-.023.056-.042a.62.62 0 0 0 .066-.222l.084-.462.038-.042h.216l.037.037.015.01zM8.295 69.868c-.052.363-.08.773-.08 1.226l-.038.038-2.575-.024c-.428 0-.733.01-.912.024l-.038-.038v-.104l.02-.047c.173-.118.267-.189.281-.217.024-.047.033-.212.038-.495l.01-.835V67.51c0-.59-.015-.976-.048-1.155-.014-.071-.051-.118-.122-.137a3.679 3.679 0 0 0-.414-.038l-.037-.038v-.254l.037-.033c.24.014.607.023 1.105.023.442 0 1.288-.01 2.533-.023l.038.028-.047.415c-.015.132-.024.245-.033.335l-.024.344-.037.042h-.207l-.038-.037c0-.335-.023-.528-.056-.576-.024-.032-.155-.06-.38-.08a7.414 7.414 0 0 0-.602-.028c-.207 0-.414.01-.625.028-.029.26-.038.623-.038 1.085v.769c.188.014.338.018.451.018h.465c.217-.004.339-.023.367-.06.038-.043.061-.213.075-.5l.038-.038h.22l.038.037a22.77 22.77 0 0 0 0 1.585l-.037.033h-.24l-.038-.038c0-.283-.018-.453-.056-.51-.038-.051-.15-.089-.343-.108a4.733 4.733 0 0 0-.46-.019c-.175 0-.334.005-.485.02v1.136c0 .325.005.641.019.943h.484c.69 0 1.114-.028 1.269-.085.028-.01.047-.024.056-.042a.619.619 0 0 0 .066-.222l.085-.462.037-.043h.217l.037.038.024.005zM14.033 71.094l-.033.038c-.527-.014-.841-.024-.95-.024-.432 0-.836.01-1.212.024l-.033-.038v-.236l.038-.042.31-.02c.131-.009.193-.056.193-.145 0-.052-.033-.17-.1-.35l-.286-.787c-.324-.004-.658-.01-1-.01-.184 0-.461 0-.823.01l-.155.453c-.118.344-.179.561-.179.646 0 .094.057.15.165.165.06.01.183.019.361.028l.038.038v.24l-.038.038c-.437-.014-.719-.023-.84-.023-.1 0-.34.01-.72.023l-.033-.033v-.24l.038-.038c.244-.014.395-.066.446-.15.057-.086.264-.605.625-1.552l.926-2.429c.07-.189.174-.472.31-.854h.503l1.875 4.64c.076.175.141.274.198.298.08.028.193.042.338.042l.033.043v.24l.005.005zm-2.247-2l-.756-1.947-.724 1.947c.193.01.446.01.757.01.31 0 .545 0 .728-.01h-.005zM19.903 68.184c0 .84-.263 1.538-.785 2.09a2.6 2.6 0 0 1-.926.627c-.39.16-.846.235-1.363.226l-1.25-.024a7.4 7.4 0 0 0-.841.024l-.038-.038v-.103l.02-.048c.173-.118.267-.188.281-.216.024-.043.033-.208.038-.496l.01-.834v-1.887c0-.59-.015-.976-.048-1.155-.014-.07-.052-.118-.122-.137a3.68 3.68 0 0 0-.414-.037l-.037-.038v-.255l.037-.033c.25.014.49.024.715.024.55 0 1.048-.01 1.485-.024.22-.01.442-.01.662-.01.616 0 1.086.076 1.415.222.357.16.64.415.841.76.207.353.31.806.31 1.358l.01.004zm-1.086.18c0-.689-.16-1.217-.474-1.585a1.333 1.333 0 0 0-.62-.41c-.236-.076-.565-.113-.988-.113-.22 0-.427.014-.63.047-.023.278-.037.948-.037 2.018l.01 1.627c0 .363.009.604.027.722.207.033.419.052.64.052.47 0 .84-.071 1.113-.218.292-.155.527-.42.696-.796.179-.387.268-.835.268-1.35l-.005.006zM22.77 71.094l-.034.038a19.703 19.703 0 0 0-1.095-.024c-.493 0-.855.01-1.09.024l-.033-.038v-.25l.038-.038c.24-.014.38-.028.413-.037.07-.02.108-.067.122-.137.033-.18.047-.561.047-1.156V67.51c0-.59-.014-.976-.047-1.155a.155.155 0 0 0-.122-.137 3.68 3.68 0 0 0-.413-.038l-.038-.038v-.254l.038-.033c.225.014.592.023 1.09.023.498 0 .86-.01 1.086-.023l.037.033v.254l-.037.038c-.24.014-.381.028-.414.038-.07.019-.108.066-.122.137-.028.179-.047.56-.047 1.155v1.966c0 .59.014.977.047 1.156.014.07.051.118.122.136.038.01.174.024.414.038l.037.038v.25zM28.865 66.147l-.038.038c-.24.014-.38.028-.413.038-.07.019-.108.066-.123.136-.028.18-.047.562-.047 1.156v1.509c0 1.113.015 1.839.047 2.178l-.047.033c-.267-.047-.47-.08-.606-.099-.634-.745-1.715-2.108-3.242-4.083v2.433c0 .59.014.976.047 1.155.009.071.051.118.122.137.037.01.174.024.413.038l.038.037v.255l-.038.033a14.647 14.647 0 0 0-.756-.023c-.273 0-.545.009-.818.023l-.033-.033v-.255l.033-.037c.24-.014.38-.029.414-.038.07-.019.108-.066.122-.137.028-.179.047-.56.047-1.155v-1.967c0-.589-.014-.976-.047-1.155-.014-.07-.052-.118-.122-.137a3.653 3.653 0 0 0-.414-.037l-.033-.038v-.255l.033-.033c.226.014.437.024.64.024.319 0 .582-.01.793-.024a59.54 59.54 0 0 0 2.999 3.83v-2.18c0-.589-.014-.975-.047-1.155a.155.155 0 0 0-.123-.136 3.653 3.653 0 0 0-.413-.038l-.038-.038v-.255l.038-.032c.263.014.517.023.757.023.305 0 .578-.01.822-.023l.038.032v.255h-.005zM34.795 69.231l-.037.043c-.146.037-.23.09-.254.155-.024.066-.038.316-.038.755 0 .212.01.42.029.627-.79.311-1.504.467-2.148.467-.846 0-1.527-.25-2.054-.745-.521-.495-.785-1.174-.785-2.033 0-1.117.46-1.914 1.387-2.39.423-.218.958-.326 1.612-.326.376 0 .761.042 1.146.132.32.07.569.156.757.245l.033.066c-.061.217-.113.6-.15 1.137l-.038.037h-.212l-.037-.037c0-.047-.005-.146-.014-.293a2.122 2.122 0 0 0-.038-.31c-.103-.152-.282-.274-.531-.378a2.3 2.3 0 0 0-.87-.165c-.836 0-1.414.354-1.733 1.066-.146.325-.221.707-.221 1.14 0 .69.174 1.265.526 1.717.362.472.837.708 1.42.708.31 0 .605-.071.897-.208.014-.174.023-.41.023-.717 0-.245-.01-.396-.023-.448-.014-.037-.061-.07-.136-.084a6.674 6.674 0 0 0-.597-.057l-.038-.038v-.236l.038-.037c.343.01.7.014 1.076.01.216 0 .54-.006.973-.01l.037.037v.18-.01zM40.731 65.888l-.047.424c-.01.095-.019.217-.033.373l-.023.297-.038.042h-.207l-.037-.037c-.005-.335-.024-.524-.057-.571-.056-.075-.385-.113-.987-.113-.098 0-.249.01-.455.023-.029.255-.038.708-.038 1.363v.505l.4.01c.122 0 .342 0 .667-.015.066 0 .108-.019.127-.056.037-.062.056-.222.066-.49l.037-.039h.22l.038.038a22.77 22.77 0 0 0 0 1.585l-.037.033h-.24l-.037-.038c0-.26-.01-.415-.033-.458-.043-.084-.16-.136-.367-.155a6.15 6.15 0 0 0-.846-.01v.887c0 .59.014.971.047 1.155.01.071.052.118.123.137.014.005.183.019.507.038l.038.037v.25l-.038.038-1.424-.023c-.202 0-.484.004-.841.023l-.038-.033v-.255l.038-.037c.24-.014.38-.029.413-.038.07-.019.108-.066.123-.137.028-.179.047-.566.047-1.155v-1.967c0-.589-.014-.971-.047-1.155-.015-.07-.052-.118-.123-.137a3.64 3.64 0 0 0-.413-.037l-.038-.038v-.255l.038-.033c.225.014.592.024 1.09.024.324 0 1.119-.01 2.388-.024l.037.029v-.005zM43.532 71.094l-.033.038a19.703 19.703 0 0 0-1.095-.024c-.494 0-.855.01-1.09.024l-.033-.038v-.25l.037-.038c.24-.014.381-.028.414-.037.07-.02.108-.067.122-.137.033-.18.047-.561.047-1.156V67.51c0-.59-.014-.976-.047-1.155a.155.155 0 0 0-.122-.137 3.68 3.68 0 0 0-.414-.038l-.037-.038v-.254l.037-.033c.226.014.593.023 1.09.023.499 0 .86-.01 1.086-.023l.033.033v.254l-.033.038c-.24.014-.38.028-.413.038-.07.019-.108.066-.123.137-.028.179-.047.56-.047 1.155v1.966c0 .59.015.977.047 1.156.015.07.052.118.123.136.037.01.174.024.413.038l.033.038v.25h.005zM48.899 71.094l-.038.038h-.136a17.201 17.201 0 0 0-.606-.02c-.123 0-.31.01-.574.024a1.044 1.044 0 0 0-.136-.297l-.879-1.542-.395-.627a1.132 1.132 0 0 0-.206-.226l.037-.128h.122c.23 0 .414-.037.546-.113.122-.07.23-.193.333-.363.104-.174.15-.382.15-.622 0-.42-.15-.703-.446-.85-.14-.07-.348-.103-.62-.103-.118 0-.23.01-.339.028-.023.245-.037.656-.037 1.245v1.948c0 .59.014.976.047 1.155.014.07.052.118.122.137.038.01.174.023.414.038l.037.037v.25l-.033.038a19.65 19.65 0 0 0-1.09-.023c-.489 0-.87.009-1.09.023l-.033-.033v-.255l.033-.037c.24-.014.38-.029.413-.038.07-.019.108-.066.123-.137.028-.179.046-.561.046-1.155v-1.967c0-.59-.014-.976-.047-1.155-.014-.07-.051-.118-.122-.137a3.626 3.626 0 0 0-.413-.037l-.033-.038v-.255l.033-.033c.23.014.597.024 1.09.024.287 0 .522 0 .7-.01.357-.014.625-.023.8-.023.408 0 .709.037.902.113a.858.858 0 0 1 .517.528c.042.123.065.264.065.434 0 .674-.362 1.155-1.085 1.438.117.208.244.42.376.632l.545.882c.32.519.536.816.639.891a.4.4 0 0 0 .225.057l.038.038v.24l.005-.014zM56 71.094l-.038.038a19.529 19.529 0 0 0-1.09-.024c-.493 0-.87.01-1.09.024l-.033-.033v-.255l.033-.038c.24-.014.38-.028.413-.037.07-.02.108-.067.123-.137.028-.18.047-.561.047-1.156v-2.518l-.79 1.703c-.047.094-.197.443-.46 1.042l-.65 1.49h-.239a27.657 27.657 0 0 0-.498-1.165l-.498-1.103-.926-2.028v2.584c0 .59.014.976.047 1.156.014.07.052.117.122.136.038.01.174.024.414.038l.038.038v.254l-.038.033a14.815 14.815 0 0 0-.757-.023c-.272 0-.545.01-.818.023l-.037-.033v-.254l.038-.038c.24-.014.38-.028.413-.038.07-.019.108-.066.122-.136.033-.18.047-.562.047-1.156v-1.966c0-.59-.014-.976-.047-1.156a.155.155 0 0 0-.122-.136 3.653 3.653 0 0 0-.413-.038l-.038-.038v-.255l.038-.032c.244.014.554.023.93.023.287 0 .54-.01.757-.023.08.188.188.452.333.796l.226.514 1.128 2.476.54-1.155.846-1.9c.099-.227.197-.467.291-.731.268.014.447.023.541.023.46 0 .818-.01 1.062-.023l.038.032v.255l-.038.033c-.24.014-.38.028-.413.038-.071.019-.109.066-.123.137-.028.179-.047.56-.047 1.155v1.966c0 .59.014.977.047 1.156.014.07.052.118.123.136.037.01.173.024.413.038l.038.038v.25H56z"/></g><g><path d="M19.343 86.915v-.575c.837-.745 2.388-2.226 2.388-3.419 0-.566-.376-.934-.922-.934-.507 0-.803.354-.986.797h-.386c.024-.17.094-.344.193-.49.32-.472.85-.722 1.41-.722.935 0 1.635.439 1.635 1.476 0 1.038-1.194 2.118-1.913 2.716-.244.208-.493.397-.728.6h1.687c.611 0 .818-.128.85-.764h.236v1.31h-3.478l.014.005zM25.772 87c-1.654 0-1.964-1.278-1.964-2.707 0-1.429.31-2.716 1.964-2.716s1.965 1.278 1.965 2.716c0 1.439-.31 2.707-1.965 2.707zm.968-3.678c-.056-.627-.216-1.363-.968-1.363s-.912.736-.968 1.363a9.503 9.503 0 0 0-.042.967c0 .344.009.679.042 1.018.066.608.244 1.302.968 1.302s.902-.694.968-1.302c.033-.344.042-.679.042-1.018 0-.34-.009-.642-.042-.967zM28.63 86.915v-.575c.836-.745 2.387-2.226 2.387-3.419 0-.566-.376-.934-.921-.934-.508 0-.804.354-.987.797h-.386c.024-.17.095-.344.193-.49.32-.472.85-.722 1.41-.722.935 0 1.636.439 1.636 1.476 0 1.038-1.194 2.118-1.913 2.716-.245.208-.494.397-.729.6h1.688c.61 0 .817-.128.85-.764h.235v1.31H28.62l.01.005zM34.683 87c-.475 0-.935-.094-1.387-.24v-.354c.315.113.644.207.978.207.808 0 1.429-.4 1.429-1.292 0-.764-.367-1.018-1.063-1.018v-.387c.626.01.978-.25.978-.943 0-.557-.268-1.01-.86-1.01-.494 0-.86.336-1.02.798h-.352c.192-.863.808-1.184 1.635-1.184s1.546.4 1.546 1.311c0 .608-.409 1.019-.944 1.207v.02c.686.145 1.029.589 1.029 1.31 0 1.132-1.01 1.575-1.974 1.575h.005z"/></g></g><defs><clipPath id="a"><path fill="#fff" d="M0 0h56v87H0z"/></clipPath></defs></svg>