<svg width="82" height="67" viewBox="0 0 82 67" fill="none" xmlns="http://www.w3.org/2000/svg"><g clip-path="url(#a)"><g fill="#fff"><path d="M6.253 9.228a2.769 2.769 0 0 1-.734.908c-.312.253-.68.448-1.106.582a4.553 4.553 0 0 1-1.379.203c-.72 0-1.328-.095-1.823-.284-.496-.189-.899-.392-1.21-.607L.647 8.91c.225.174.544.346.952.519a3.522 3.522 0 0 0 2.08.178c.237-.055.451-.144.646-.267.193-.123.351-.281.476-.47.123-.19.185-.414.185-.673 0-.431-.14-.794-.42-1.086-.28-.292-.62-.559-1.025-.802a48.708 48.708 0 0 0-1.267-.738 4.542 4.542 0 0 1-1.147-.907 2.988 2.988 0 0 1-.54-.843 2.713 2.713 0 0 1-.2-1.086c0-.378.069-.734.21-1.07.14-.334.347-.626.622-.874.274-.249.61-.444 1.008-.583C2.625.07 3.076 0 3.58 0c.57 0 1.056.056 1.46.17.405.114.735.235.993.365L6.017 1.96a4.975 4.975 0 0 0-1.101-.51 4.044 4.044 0 0 0-1.28-.204c-.496 0-.924.108-1.278.324-.358.215-.535.556-.535 1.02 0 .368.115.683.346.949.232.265.521.51.867.737a14 14 0 0 0 1.133.665c.41.216.789.464 1.132.745.346.282.635.611.867.989.231.378.348.837.348 1.377 0 .433-.089.824-.266 1.175l.003.001zM8.245 3.273c.258-.67.63-1.252 1.114-1.749A5.11 5.11 0 0 1 11.045.398a5.509 5.509 0 0 1 2.12-.396c.83 0 1.582.145 2.259.437a4.852 4.852 0 0 1 1.726 1.23c.43.486.762 1.052.992 1.694a6.18 6.18 0 0 1 .347 2.097c0 .821-.137 1.574-.412 2.26a5.065 5.065 0 0 1-1.154 1.758 5.096 5.096 0 0 1-1.669 1.07 5.651 5.651 0 0 1-2.09.373c-.763 0-1.416-.114-2.026-.34a4.919 4.919 0 0 1-1.62-.989A4.982 4.982 0 0 1 8.29 7.81c-.29-.7-.435-1.474-.435-2.317 0-.844.13-1.55.387-2.22h.003zm8.446.527a3.84 3.84 0 0 0-.734-1.33 3.285 3.285 0 0 0-1.185-.866c-.468-.205-1.003-.308-1.605-.308-.57 0-1.088.097-1.556.292a3.318 3.318 0 0 0-1.195.834 3.72 3.72 0 0 0-.757 1.322 5.334 5.334 0 0 0-.266 1.733c0 .637.089 1.215.266 1.734.177.518.43.959.757 1.32.329.362.727.64 1.195.833.468.194.986.292 1.556.292.571 0 1.089-.096 1.557-.292a3.316 3.316 0 0 0 1.194-.834c.329-.362.582-.802.76-1.32a5.337 5.337 0 0 0 .265-1.733c0-.604-.084-1.163-.25-1.677h-.002zM28.156 10.76L22.96 3.872c-.28-.378-.504-.682-.67-.915a6.297 6.297 0 0 1-.428-.673h-.032c.032.356.048.8.048 1.329v7.147h-1.436V.08h1.468l4.986 6.627c.324.433.571.77.742 1.012.173.244.311.473.42.689h.033a27.378 27.378 0 0 1-.033-1.393V.08h1.437V10.76h-1.34zM39.758 10.76l-5.196-6.887c-.28-.378-.504-.682-.67-.915a6.297 6.297 0 0 1-.428-.673h-.033c.033.356.048.8.048 1.329v7.147h-1.435V.08h1.468l4.986 6.627c.323.433.57.77.742 1.012.172.244.31.473.42.689h.032a27.378 27.378 0 0 1-.033-1.393V.08h1.438V10.76h-1.34z"/></g><g fill="#fff"><path d="M9.44 24.258V16.48c0-.163.01-.367.032-.616h-.017a4.18 4.18 0 0 1-.289.592l-.29.478-2.632 4.214h-.838l-2.807-4.23-.276-.444c-.096-.157-.199-.36-.306-.608h-.033a6.95 6.95 0 0 1 .066 1.118v7.277H.614V13.583h1.403l3.227 4.812c.15.215.269.4.355.55.085.152.161.304.225.454h.033c.065-.14.133-.29.21-.445.074-.157.186-.349.339-.575l3.032-4.796h1.436V24.26H9.438l.002-.003zM20.009 24.258l-1.081-2.788h-4.115l-1 2.788h-1.42l4.082-10.711h.921l4.146 10.71h-1.533zm-2.678-7.26c-.184-.507-.318-.95-.403-1.329h-.016c-.096.378-.238.816-.42 1.312l-1.178 3.24h3.13l-1.113-3.224v.001zM28.915 24.217a6.32 6.32 0 0 1-1.564.203c-.806 0-1.53-.136-2.17-.405a4.65 4.65 0 0 1-1.63-1.126 4.904 4.904 0 0 1-1.025-1.71 6.29 6.29 0 0 1-.354-2.14c0-.768.13-1.5.395-2.17a5.359 5.359 0 0 1 1.113-1.759 5.133 5.133 0 0 1 1.719-1.182c.667-.286 1.409-.43 2.227-.43.612 0 1.15.063 1.612.186.462.125.834.267 1.114.43l-.017 1.426a6.226 6.226 0 0 0-1.235-.583c-.414-.14-.911-.21-1.493-.21-.581 0-1.143.107-1.62.323a3.568 3.568 0 0 0-1.227.9 3.98 3.98 0 0 0-.775 1.336 4.934 4.934 0 0 0-.266 1.637c0 .582.086 1.162.258 1.67.171.507.425.947.758 1.319s.734.664 1.202.875c.468.21 1.003.315 1.605.315.463 0 .906-.062 1.331-.186a6.038 6.038 0 0 0 1.202-.495l.42 1.118a6.297 6.297 0 0 1-1.582.656l.002.002zM41.114 24.258V16.48c0-.163.01-.367.032-.616h-.017a4.183 4.183 0 0 1-.29.592c-.106.178-.204.338-.29.478l-2.631 4.214h-.838l-2.807-4.23-.276-.444c-.096-.157-.199-.36-.306-.608h-.033a6.96 6.96 0 0 1 .066 1.118v7.277h-1.436V13.583h1.403l3.227 4.812c.15.215.269.4.354.55.086.152.162.304.226.454h.033c.065-.14.133-.29.21-.445.074-.157.186-.349.339-.575l3.032-4.796h1.435V24.26h-1.435l.002-.003zM45.098 24.257V13.58h1.435v10.677h-1.435zM49.084 24.257V13.58h1.435v9.398h3.953v1.281h-5.389v-.002zM55.94 24.257V13.58h1.436v9.398h3.953v1.281H55.94v-.002zM69.382 24.258L68.3 21.47h-4.115l-1 2.788h-1.42l4.082-10.711h.921l4.146 10.71h-1.533zm-2.678-7.26c-.184-.507-.317-.95-.403-1.329h-.016c-.096.378-.238.816-.42 1.312l-1.178 3.24h3.13l-1.113-3.224v.001zM80.11 24.257l-5.195-6.885c-.28-.378-.504-.683-.67-.916a6.295 6.295 0 0 1-.428-.673h-.033c.033.356.048.8.048 1.33v7.146h-1.435V13.581h1.468l4.986 6.627c.323.432.57.77.742 1.012.172.243.31.473.42.689h.032a27.376 27.376 0 0 1-.033-1.393V13.58h1.438V24.26h-1.34v-.002z"/></g><g fill="#fff"><path d="M11.68 37.804H10.57l-1.873-5.233a44.085 44.085 0 0 1-.265-.762c-.092-.27-.18-.556-.266-.86h-.033c-.184.607-.36 1.14-.532 1.605l-1.936 5.25H4.55L.823 27.078h1.581l2.276 6.903c.096.281.183.551.258.81.074.26.15.524.225.794h.033c.074-.248.158-.505.249-.77l.283-.818 1.743-4.845-.726-2.074H8.23l2.34 6.806c.108.303.21.586.307.851.096.264.183.527.258.786h.033c.063-.27.133-.533.21-.786.074-.253.155-.521.242-.802l2.195-6.855h1.5l-3.631 10.726h-.003zM22.896 37.756l-1.08-2.788H17.7l-1 2.788h-1.42l4.082-10.71h.92l4.147 10.71h-1.534zm-2.678-7.26c-.183-.507-.317-.949-.402-1.328H19.8c-.096.378-.238.815-.42 1.312l-1.179 3.24h3.13l-1.113-3.225v.002zM25.914 37.756V27.078h1.435v9.399h3.953v1.28h-5.388v-.001zM38.305 37.756l-4.082-4.78h-.016v4.78h-1.435V27.078h1.42v4.796h.03l3.84-4.763h1.727l-4.324 5.218 4.68 5.428h-1.84v-.001zM41.628 37.756V27.078h5.437l-.468 1.28h-3.533v3.307h3.502v1.263h-3.502v3.549h4.034v1.28h-5.47v-.001zM54.746 37.756a233.871 233.871 0 0 0-2-3.208c-.483-.756-.833-1.162-1.048-1.215h-1.065v4.424h-1.436V27.08h2.42c.646 0 1.196.074 1.655.226.457.151.829.362 1.112.63.286.271.496.585.63.941.135.356.202.734.202 1.134 0 .378-.058.718-.17 1.021a2.97 2.97 0 0 1-.45.81 3.133 3.133 0 0 1-.646.616 3.141 3.141 0 0 1-.767.405v.015c.096.055.243.208.436.463.192.253.427.593.7 1.021.275.426.589.93.945 1.507.354.578.742 1.207 1.162 1.888h-1.678l-.002-.001zM53.6 29.483a1.527 1.527 0 0 0-.355-.582 1.667 1.667 0 0 0-.637-.397c-.263-.097-.59-.145-.977-.145h-1v3.774h1.048a2.046 2.046 0 0 0 1.453-.576 1.91 1.91 0 0 0 .428-.625 1.9 1.9 0 0 0 .153-.76c0-.238-.038-.467-.113-.689z"/></g><path d="M.927 44.267c1.482 5.091 9.8 8.991 19.839 8.991 10.038 0 18.312-3.878 19.826-8.947" fill="#fff"/><path d="M.927 44.267c1.482 5.091 9.8 8.991 19.839 8.991 10.038 0 18.312-3.878 19.826-8.947L.927 44.268v-.001z" stroke="#fff" stroke-width=".25"/><path d="M42.308 57.99c1.482 5.091 9.8 8.991 19.84 8.991 10.038 0 18.311-3.878 19.826-8.949" fill="#fff"/><path d="M42.308 57.99c1.482 5.091 9.8 8.991 19.84 8.991 10.038 0 18.311-3.878 19.826-8.949l-39.666-.042z" stroke="#fff" stroke-width=".25"/></g><defs><clipPath id="a"><path fill="#fff" d="M0 0h82v67H0z"/></clipPath></defs></svg>