<svg width="118" height="95" viewBox="0 0 118 95" fill="none" xmlns="http://www.w3.org/2000/svg"><g clip-path="url(#a)"><g fill="#fff"><path d="M9.611 13.085a3.932 3.932 0 0 1-1.047 1.287c-.446.358-.97.635-1.578.826a6.535 6.535 0 0 1-1.968.287c-1.028 0-1.895-.135-2.6-.403-.709-.268-1.283-.555-1.727-.861l.92-1.586c.323.246.777.49 1.359.736.583.245 1.242.367 1.979.367.322 0 .652-.037.99-.115.337-.077.643-.204.92-.379.276-.175.502-.398.68-.666.175-.268.264-.587.264-.955 0-.61-.2-1.124-.6-1.539a7.032 7.032 0 0 0-1.462-1.138 69.586 69.586 0 0 0-1.808-1.045 6.473 6.473 0 0 1-1.636-1.287 4.233 4.233 0 0 1-.77-1.195c-.193-.443-.286-.957-.286-1.54 0-.535.098-1.04.3-1.516.2-.474.495-.888.887-1.24A4.15 4.15 0 0 1 3.866.297c.568-.2 1.212-.3 1.933-.3.812 0 1.507.08 2.083.242a8.137 8.137 0 0 1 1.416.518L9.274 2.78a7.119 7.119 0 0 0-1.571-.724 5.804 5.804 0 0 0-1.826-.288c-.708 0-1.318.153-1.824.458-.51.306-.764.789-.764 1.449 0 .52.164.967.495 1.344.33.376.743.724 1.236 1.045.493.321 1.032.635 1.618.943a9.66 9.66 0 0 1 1.615 1.057c.493.398.905.865 1.236 1.401.33.536.497 1.187.497 1.954 0 .613-.126 1.167-.38 1.665l.005.002zM12.453 4.641a7.242 7.242 0 0 1 1.59-2.48A7.294 7.294 0 0 1 16.447.565C17.36.19 18.369.002 19.474.002c1.183 0 2.257.206 3.222.62a6.924 6.924 0 0 1 2.463 1.745 7.277 7.277 0 0 1 1.416 2.4c.328.91.495 1.905.495 2.975 0 1.165-.196 2.232-.588 3.204a7.177 7.177 0 0 1-1.647 2.494 7.276 7.276 0 0 1-2.38 1.516c-.9.353-1.894.53-2.983.53-1.09 0-2.021-.162-2.891-.483a7.027 7.027 0 0 1-2.313-1.402 7.062 7.062 0 0 1-1.75-2.527c-.415-.994-.622-2.09-.622-3.286 0-1.196.185-2.197.553-3.147h.004zm12.052.747a5.435 5.435 0 0 0-1.048-1.885 4.685 4.685 0 0 0-1.69-1.229c-.669-.29-1.432-.436-2.29-.436-.815 0-1.554.137-2.222.414a4.733 4.733 0 0 0-1.704 1.183 5.267 5.267 0 0 0-1.08 1.873c-.254.735-.38 1.555-.38 2.458 0 .904.127 1.723.38 2.458.252.735.612 1.36 1.08 1.871a4.678 4.678 0 0 0 1.704 1.183c.668.274 1.407.414 2.221.414.815 0 1.554-.137 2.222-.414a4.732 4.732 0 0 0 1.704-1.183c.468-.513.83-1.138 1.082-1.87.253-.736.38-1.555.38-2.459 0-.857-.12-1.65-.357-2.378h-.003zM40.862 15.255L33.45 5.492c-.4-.536-.719-.968-.956-1.298a8.944 8.944 0 0 1-.61-.954h-.047c.046.504.069 1.133.069 1.884v10.133h-2.049V.115h2.095l7.114 9.396c.462.613.814 1.092 1.059 1.435.246.345.443.67.599.976h.046a38.357 38.357 0 0 1-.047-1.975V.115h2.05v15.14h-1.91zM57.416 15.255l-7.414-9.763c-.4-.536-.719-.968-.956-1.298a8.912 8.912 0 0 1-.61-.954h-.047c.047.504.069 1.133.069 1.884v10.133H46.41V.115h2.094l7.114 9.396c.462.613.815 1.092 1.059 1.435.246.345.444.67.599.976h.046a38.357 38.357 0 0 1-.047-1.975V.115h2.051v15.14h-1.91z"/></g><g fill="#fff"><path d="M14.157 34.395V23.367c0-.23.016-.52.047-.873h-.024a5.917 5.917 0 0 1-.413.84c-.153.252-.293.478-.415.677l-3.755 5.975H8.401l-4.005-5.997c-.124-.2-.253-.41-.392-.631a6.82 6.82 0 0 1-.438-.861H3.52c.046.352.073.64.082.861.007.221.011.463.011.724V34.4H1.565V19.26h2.001l4.605 6.823c.213.305.384.567.506.781.122.215.23.43.321.643h.047c.093-.2.19-.41.3-.631.106-.222.266-.494.483-.815l4.327-6.801h2.048v15.14h-2.048l.002-.004zM29.237 34.395l-1.542-3.953h-5.871l-1.427 3.953h-2.026l5.825-15.187h1.313l5.916 15.187h-2.188zm-3.82-10.293a15.92 15.92 0 0 1-.576-1.885h-.022c-.137.536-.34 1.156-.599 1.86l-1.682 4.596h4.467L25.416 24.1v.002zM41.945 34.337a9.07 9.07 0 0 1-2.232.288c-1.15 0-2.184-.193-3.096-.574a6.64 6.64 0 0 1-2.325-1.596 6.946 6.946 0 0 1-1.462-2.425c-.338-.934-.506-1.944-.506-3.034 0-1.09.186-2.128.563-3.078.375-.95.906-1.78 1.59-2.493a7.324 7.324 0 0 1 2.451-1.677c.952-.405 2.01-.609 3.178-.609.874 0 1.642.089 2.3.264.66.177 1.19.379 1.59.609l-.025 2.022a8.905 8.905 0 0 0-1.762-.826c-.59-.2-1.3-.3-2.13-.3-.83 0-1.631.153-2.312.46a5.089 5.089 0 0 0-1.751 1.275 5.636 5.636 0 0 0-1.105 1.895 6.955 6.955 0 0 0-.38 2.321c0 .826.123 1.647.369 2.367a5.31 5.31 0 0 0 1.08 1.871 5.067 5.067 0 0 0 1.716 1.24c.668.3 1.431.448 2.29.448.661 0 1.293-.089 1.9-.264a8.654 8.654 0 0 0 1.714-.702l.6 1.586a9.02 9.02 0 0 1-2.257.93l.002.002zM59.35 34.395V23.367c0-.23.016-.52.047-.873h-.024a5.906 5.906 0 0 1-.413.84c-.153.252-.293.478-.415.677l-3.754 5.975h-1.196l-4.006-5.997c-.124-.2-.252-.41-.392-.631a6.814 6.814 0 0 1-.438-.861h-.046c.047.352.073.64.082.861.007.221.011.463.011.724V34.4h-2.048V19.26h2.002l4.604 6.823c.213.305.384.567.506.781.122.215.23.43.322.643h.046c.093-.2.19-.41.3-.631.106-.222.266-.494.483-.815l4.327-6.801h2.048v15.14h-2.048l.002-.004zM65.035 34.395v-15.14h2.049v15.14h-2.049zM70.722 34.395v-15.14h2.049V32.58h5.64v1.816h-7.689v-.002zM80.506 34.395v-15.14h2.048V32.58h5.64v1.816h-7.688v-.002zM99.684 34.395l-1.542-3.953H92.27l-1.427 3.953h-2.026l5.825-15.187h1.313l5.916 15.187h-2.188zm-3.821-10.293a15.92 15.92 0 0 1-.575-1.885h-.022c-.138.536-.34 1.156-.599 1.86l-1.682 4.596h4.467L95.863 24.1v.002zM114.992 34.395l-7.413-9.764a102.72 102.72 0 0 1-.956-1.297 8.937 8.937 0 0 1-.611-.955h-.046c.046.505.069 1.134.069 1.885v10.133h-2.048v-15.14h2.094l7.114 9.396c.462.613.814 1.091 1.059 1.435.246.345.443.67.599.976h.046a38.032 38.032 0 0 1-.046-1.975v-9.832h2.05v15.14h-1.911v-.002z"/></g><g fill="#fff"><path d="M17.355 53.603h-1.587l-2.671-7.42a62.332 62.332 0 0 1-.38-1.081c-.13-.383-.257-.789-.38-1.218h-.046c-.261.859-.514 1.616-.759 2.274L8.77 53.603H7.18L1.862 38.394H4.12l3.246 9.788c.138.398.262.782.369 1.15.106.367.215.741.321 1.124h.047c.106-.352.226-.715.355-1.092l.404-1.16 2.487-6.87-1.036-2.94h2.12l3.339 9.65c.153.43.3.831.437 1.208.137.374.262.746.368 1.113h.047c.09-.383.19-.755.3-1.114.106-.358.221-.74.345-1.138l3.131-9.719h2.142l-5.182 15.209h-.004zM33.358 53.534l-1.542-3.952h-5.872l-1.426 3.952h-2.026l5.824-15.186h1.314l5.916 15.186h-2.188zm-3.821-10.292a15.951 15.951 0 0 1-.575-1.885h-.022c-.138.536-.34 1.156-.6 1.86l-1.681 4.595h4.467l-1.59-4.573v.003zM37.663 53.534v-15.14h2.048v13.327h5.64v1.816h-7.688v-.003zM55.343 53.534l-5.825-6.778h-.022v6.778h-2.048v-15.14h2.026v6.8h.044l5.479-6.754h2.463L51.29 45.84l6.677 7.697h-2.625v-.002zM60.085 53.534v-15.14h7.757l-.668 1.816h-5.041v4.688h4.997v1.791h-4.997v5.032h5.756v1.816h-7.804v-.003zM78.802 53.535a332.59 332.59 0 0 0-2.854-4.549c-.69-1.072-1.19-1.648-1.495-1.723h-1.52v6.274h-2.049v-15.14h3.453c.921 0 1.706.106 2.361.32.653.215 1.183.514 1.587.895.408.383.708.828.898 1.333.193.505.289 1.041.289 1.608a4.13 4.13 0 0 1-.242 1.448c-.162.43-.375.813-.644 1.15a4.457 4.457 0 0 1-.92.872c-.347.246-.71.436-1.094.574v.022c.137.077.346.294.621.655.275.359.61.842 1 1.448.391.605.84 1.318 1.348 2.137.505.82 1.058 1.712 1.657 2.678h-2.394l-.002-.002zm-1.636-11.73a2.163 2.163 0 0 0-.506-.827 2.382 2.382 0 0 0-.91-.562c-.374-.137-.84-.206-1.393-.206H72.93v5.352h1.496c.415 0 .799-.073 1.152-.219a2.92 2.92 0 0 0 .92-.598c.262-.252.464-.547.61-.886.147-.336.22-.697.22-1.078 0-.337-.055-.662-.162-.977z"/></g><path d="M2.011 62.766c2.115 7.22 13.984 12.749 28.307 12.749 14.323 0 26.128-5.499 28.29-12.687" fill="#fff"/><path d="M2.011 62.766c2.115 7.22 13.984 12.749 28.307 12.749 14.323 0 26.128-5.499 28.29-12.687l-56.597-.06v-.002z" stroke="#fff" stroke-width=".25"/><path d="M61.055 82.225c2.114 7.219 13.983 12.749 28.307 12.749 14.323 0 26.128-5.499 28.289-12.69" fill="#fff"/><path d="M61.055 82.225c2.114 7.219 13.983 12.749 28.307 12.749 14.323 0 26.128-5.499 28.289-12.69l-56.596-.06z" stroke="#fff" stroke-width=".25"/></g><defs><clipPath id="a"><path fill="#fff" transform="translate(.688)" d="M0 0h117v95H0z"/></clipPath></defs></svg>